<svg width="372" height="372" viewBox="0 0 372 372" fill="none" xmlns="http://www.w3.org/2000/svg">
<path d="M28.9338 199.094C28.9338 199.094 31.6419 254.582 78.5065 290.204C125.371 325.82 189.504 326.527 241.45 328.461C293.396 330.403 332.761 299.743 338.029 255.05C343.296 210.358 303.433 198.499 281.083 148.48C258.733 98.4682 260.37 81.7505 214.339 51.9756C168.307 22.1933 97.4264 43.494 60.9778 98.0144C24.5367 152.542 28.9338 199.094 28.9338 199.094Z" fill="#F4E6CB"/>
<path opacity="0.7" d="M28.9338 199.094C28.9338 199.094 31.6419 254.582 78.5065 290.204C125.371 325.82 189.504 326.527 241.45 328.461C293.396 330.403 332.761 299.743 338.029 255.05C343.296 210.358 303.433 198.499 281.083 148.48C258.733 98.4682 260.37 81.7505 214.339 51.9756C168.307 22.1933 97.4264 43.494 60.9778 98.0144C24.5367 152.542 28.9338 199.094 28.9338 199.094Z" fill="#F4E6CB"/>
<path d="M313.023 277.408C313.023 277.408 310.493 266.649 312.39 257.156C314.287 247.663 318.714 253.994 323.781 247.663C328.847 241.331 326.31 229.316 332.009 224.249C337.701 219.19 345.93 219.822 347.827 210.329C349.724 200.835 350.989 193.246 354.791 194.511C358.585 195.776 351.629 207.167 351.629 214.123C351.629 221.079 355.423 225.514 352.894 232.47C350.364 239.434 339.606 236.897 339.606 245.126C339.606 253.354 344.032 261.575 340.238 267.274C336.444 272.966 326.318 274.238 325.053 277.4C323.788 280.562 320.626 286.261 317.457 286.261C314.287 286.269 313.023 277.408 313.023 277.408Z" fill="#BED2FF"/>
<path d="M310.962 277.519C311.594 275.622 310.33 259.172 304.638 256.003C298.946 252.841 292.615 254.106 289.453 248.407C286.291 242.715 286.291 240.178 283.129 239.545C279.967 238.913 264.782 236.383 266.679 239.545C268.576 242.707 279.967 237.648 279.967 243.972C279.967 250.296 278.702 260.422 282.496 262.952C286.291 265.481 296.417 264.849 295.784 270.548C295.152 276.24 293.255 278.144 296.417 280.041C299.579 281.939 308.44 290.167 309.705 283.836C310.962 277.519 310.962 277.519 310.962 277.519Z" fill="#BED2FF"/>
<path d="M318.008 291.477C318.008 291.477 315.061 282.266 323.164 265.318C331.273 248.369 337.166 235.476 340.848 228.839" stroke="#021335" stroke-width="1.2565" stroke-miterlimit="10"/>
<path d="M311.371 292.95C311.371 292.95 310.263 288.53 306.58 276.366C302.897 264.209 298.47 260.891 292.213 256.836C285.949 252.781 285.584 246.152 284.476 244.307" stroke="#021335" stroke-width="1.2565" stroke-miterlimit="10"/>
<path d="M326.847 286.313C326.847 286.313 327.583 279.684 333.476 277.839C339.368 275.994 344.896 276.731 346.005 272.683C347.113 268.628 347.113 264.574 349.687 262.364C352.269 260.154 355.58 259.046 355.952 260.154C356.324 261.263 352.269 261.999 352.269 265.682C352.269 269.365 357.797 278.576 349.687 282.266C341.578 285.949 334.949 282.638 332.003 285.212C329.056 287.794 327.211 289.632 327.211 289.632L326.847 286.313Z" fill="#BED2FF"/>
<path d="M326.109 292.95C326.109 292.95 328.691 283.367 334.956 281.158C341.22 278.948 348.221 283.739 351.167 279.312C354.114 274.893 351.904 270.466 351.539 267.52" stroke="#021335" stroke-width="1.2565" stroke-miterlimit="10"/>
<path d="M330.254 291.477H307.406C306.386 291.477 305.561 292.302 305.561 293.322C305.561 294.341 306.386 295.167 307.406 295.167H307.592L309.37 299.832C309.653 300.576 310.359 301.059 311.155 301.059H326.504C327.3 301.059 328.007 300.568 328.29 299.832L330.068 295.167H330.254C331.273 295.167 332.099 294.341 332.099 293.322C332.099 292.295 331.273 291.477 330.254 291.477Z" fill="#021335"/>
<path d="M337.933 207.412H228.654C226.712 207.412 225.135 205.835 225.135 203.893V190.077C225.135 188.135 226.712 186.558 228.654 186.558H337.933C339.874 186.558 341.452 188.135 341.452 190.077V203.893C341.452 205.835 339.882 207.412 337.933 207.412Z" fill="#D1BF9B"/>
<path d="M234.115 199.846C234.011 199.749 233.951 199.623 233.951 199.459V192.689C233.951 192.525 234.003 192.391 234.115 192.302C234.226 192.205 234.36 192.161 234.509 192.161C234.658 192.161 234.784 192.205 234.896 192.302C235 192.399 235.06 192.525 235.06 192.696V199.467C235.06 199.638 235.008 199.764 234.896 199.854C234.784 199.943 234.658 199.988 234.502 199.988C234.353 199.988 234.226 199.943 234.115 199.846Z" fill="#18181B"/>
<path d="M237.143 199.869C237.047 199.787 237.002 199.668 237.002 199.519V195.018C237.002 194.869 237.054 194.757 237.151 194.675C237.247 194.594 237.367 194.549 237.5 194.549C237.634 194.549 237.753 194.586 237.85 194.668C237.947 194.75 237.999 194.854 237.999 195.003V195.479C238.14 195.144 238.363 194.891 238.683 194.713C238.996 194.534 239.368 194.445 239.785 194.445C240.387 194.445 240.871 194.623 241.228 194.973C241.585 195.323 241.764 195.858 241.764 196.565V199.526C241.764 199.675 241.719 199.794 241.615 199.876C241.518 199.958 241.399 200.003 241.265 200.003C241.131 200.003 241.012 199.958 240.915 199.876C240.819 199.794 240.767 199.675 240.767 199.526V196.558C240.767 196.089 240.655 195.732 240.439 195.486C240.223 195.241 239.918 195.122 239.524 195.122C239.107 195.122 238.75 195.271 238.46 195.568C238.17 195.866 238.014 196.275 237.991 196.788V199.519C237.991 199.668 237.939 199.779 237.843 199.861C237.746 199.943 237.627 199.988 237.493 199.988C237.352 199.995 237.233 199.95 237.143 199.869Z" fill="#18181B"/>
<path d="M244.122 199.66C243.876 199.385 243.75 198.968 243.75 198.402V195.248H243.08C242.961 195.248 242.864 195.218 242.805 195.159C242.738 195.099 242.708 195.025 242.708 194.921C242.708 194.824 242.738 194.749 242.805 194.69C242.864 194.63 242.961 194.601 243.08 194.601H243.757L243.891 193.046C243.898 192.927 243.95 192.83 244.047 192.748C244.144 192.666 244.248 192.622 244.367 192.622C244.479 192.622 244.568 192.659 244.642 192.726C244.717 192.793 244.754 192.889 244.754 193.016V194.608H245.758C245.877 194.608 245.967 194.638 246.026 194.705C246.086 194.764 246.116 194.846 246.116 194.943C246.116 195.151 245.996 195.255 245.751 195.255H244.747V198.239C244.747 198.618 244.799 198.886 244.903 199.05C245.007 199.213 245.178 199.295 245.409 199.295H245.468L245.84 199.28H245.87C245.989 199.28 246.086 199.318 246.153 199.392C246.22 199.466 246.257 199.556 246.257 199.66C246.257 199.749 246.235 199.824 246.197 199.883C246.16 199.943 246.093 199.98 246.011 200.009C245.93 200.032 245.848 200.054 245.766 200.062C245.684 200.069 245.58 200.069 245.446 200.069H245.126C244.709 200.069 244.375 199.935 244.122 199.66Z" fill="#18181B"/>
<path d="M248.4 199.757C247.998 199.534 247.67 199.206 247.432 198.775C247.194 198.343 247.075 197.837 247.075 197.257C247.075 196.751 247.179 196.283 247.373 195.866C247.574 195.449 247.879 195.107 248.28 194.839C248.682 194.579 249.158 194.445 249.702 194.445C250.126 194.445 250.505 194.519 250.825 194.661C251.145 194.802 251.405 195.003 251.591 195.248C251.785 195.501 251.926 195.777 252.015 196.089C252.112 196.394 252.164 196.736 252.172 197.108C252.172 197.212 252.142 197.302 252.082 197.369C252.023 197.436 251.934 197.473 251.822 197.473H248.065C248.072 198.098 248.243 198.574 248.571 198.901C248.898 199.221 249.322 199.392 249.835 199.4C250.163 199.4 250.453 199.34 250.713 199.221C250.974 199.102 251.234 198.946 251.495 198.745C251.562 198.693 251.628 198.671 251.703 198.671C251.792 198.671 251.867 198.708 251.926 198.775C251.986 198.842 252.015 198.924 252.015 199.013C252.015 199.132 251.963 199.236 251.859 199.325C251.279 199.846 250.587 200.107 249.768 200.107C249.263 200.092 248.801 199.973 248.4 199.757ZM251.309 196.863C251.279 196.349 251.13 195.933 250.877 195.605C250.624 195.278 250.245 195.114 249.754 195.114C249.501 195.114 249.263 195.167 249.054 195.263C248.846 195.36 248.675 195.494 248.541 195.658C248.407 195.821 248.303 196.007 248.221 196.208C248.139 196.409 248.094 196.625 248.072 196.855H251.309V196.863Z" fill="#18181B"/>
<path d="M253.689 199.876C253.592 199.794 253.548 199.683 253.548 199.534V195.018C253.548 194.869 253.6 194.757 253.697 194.683C253.793 194.601 253.912 194.564 254.046 194.564C254.18 194.564 254.299 194.601 254.396 194.683C254.493 194.765 254.545 194.869 254.545 195.01L254.537 195.665C254.627 195.323 254.813 195.04 255.088 194.817C255.363 194.586 255.698 194.475 256.085 194.475C256.204 194.475 256.293 194.519 256.36 194.609C256.427 194.698 256.464 194.802 256.464 194.914C256.464 195.025 256.435 195.114 256.368 195.196C256.308 195.278 256.219 195.315 256.1 195.315C255.609 195.315 255.222 195.442 254.954 195.702C254.679 195.955 254.545 196.297 254.545 196.729V199.549C254.545 199.697 254.493 199.809 254.396 199.891C254.292 199.973 254.18 200.01 254.039 200.01C253.905 199.995 253.786 199.958 253.689 199.876Z" fill="#18181B"/>
<path d="M257.67 199.869C257.573 199.787 257.528 199.668 257.528 199.519V195.018C257.528 194.869 257.58 194.757 257.677 194.675C257.774 194.594 257.893 194.549 258.027 194.549C258.161 194.549 258.28 194.586 258.376 194.668C258.473 194.75 258.525 194.854 258.525 195.003V195.479C258.667 195.144 258.89 194.891 259.21 194.713C259.522 194.534 259.894 194.445 260.311 194.445C260.914 194.445 261.397 194.623 261.754 194.973C262.111 195.323 262.29 195.858 262.29 196.565V199.526C262.29 199.675 262.238 199.794 262.141 199.876C262.044 199.958 261.925 200.003 261.791 200.003C261.658 200.003 261.538 199.958 261.442 199.876C261.345 199.794 261.293 199.675 261.293 199.526V196.558C261.293 196.089 261.181 195.732 260.966 195.486C260.75 195.241 260.445 195.122 260.05 195.122C259.634 195.122 259.277 195.271 258.987 195.568C258.696 195.866 258.54 196.275 258.518 196.788V199.519C258.518 199.668 258.466 199.779 258.369 199.861C258.265 199.943 258.153 199.988 258.019 199.988C257.878 199.995 257.766 199.95 257.67 199.869Z" fill="#18181B"/>
<path d="M263.964 199.682C263.607 199.407 263.429 199.02 263.429 198.514C263.429 198.306 263.451 198.12 263.496 197.964C263.54 197.808 263.6 197.666 263.682 197.547C263.764 197.428 263.875 197.331 264.024 197.25C264.173 197.168 264.329 197.101 264.507 197.049C264.686 196.997 264.909 196.952 265.177 196.93C265.445 196.9 265.728 196.885 266.01 196.87C266.301 196.863 266.643 196.855 267.052 196.855V196.26C267.052 195.866 266.948 195.583 266.739 195.397C266.531 195.211 266.241 195.114 265.869 195.114C265.646 195.114 265.423 195.137 265.199 195.189C264.976 195.233 264.798 195.285 264.671 195.33C264.545 195.375 264.388 195.442 264.202 195.531C264.165 195.546 264.121 195.561 264.069 195.561C263.972 195.561 263.89 195.524 263.823 195.442C263.756 195.36 263.719 195.278 263.719 195.181C263.719 195.07 263.771 194.988 263.875 194.928C264.441 194.608 265.118 194.452 265.899 194.452C266.568 194.452 267.089 194.608 267.469 194.921C267.848 195.233 268.034 195.71 268.034 196.357V199.549C268.034 199.69 267.982 199.802 267.885 199.883C267.789 199.965 267.67 200.01 267.536 200.01C267.402 200.01 267.29 199.973 267.201 199.891C267.104 199.809 267.059 199.705 267.059 199.556V199.028C266.717 199.742 266.159 200.099 265.371 200.099C264.79 200.092 264.322 199.958 263.964 199.682ZM266.568 198.916C266.881 198.566 267.045 198.128 267.045 197.592V197.428C266.591 197.428 266.226 197.436 265.936 197.45C265.653 197.465 265.4 197.495 265.177 197.54C264.961 197.584 264.79 197.644 264.686 197.726C264.574 197.808 264.493 197.904 264.441 198.023C264.388 198.142 264.359 198.291 264.359 198.47C264.359 198.805 264.455 199.043 264.656 199.199C264.857 199.355 265.125 199.43 265.46 199.43C265.884 199.437 266.256 199.258 266.568 198.916Z" fill="#18181B"/>
<path d="M269.842 199.868C269.745 199.779 269.7 199.66 269.7 199.496V192.666C269.7 192.51 269.752 192.391 269.849 192.302C269.946 192.213 270.065 192.168 270.199 192.168C270.333 192.168 270.444 192.213 270.541 192.302C270.638 192.391 270.69 192.51 270.69 192.666V199.496C270.69 199.653 270.638 199.772 270.541 199.861C270.437 199.95 270.325 199.995 270.191 199.995C270.05 199.995 269.938 199.95 269.842 199.868Z" fill="#18181B"/>
<path d="M275.503 199.169C275.459 199.132 275.437 199.072 275.437 199.005C275.437 198.886 275.489 198.767 275.6 198.641C275.712 198.514 275.823 198.455 275.935 198.455C275.987 198.455 276.032 198.47 276.069 198.499C276.686 198.983 277.408 199.221 278.227 199.221C278.762 199.221 279.194 199.117 279.536 198.901C279.871 198.693 280.042 198.38 280.042 197.979C280.042 197.785 280.02 197.622 279.967 197.48C279.915 197.346 279.834 197.227 279.722 197.123C279.61 197.019 279.476 196.937 279.328 196.863C279.179 196.796 278.993 196.721 278.755 196.639L277.185 196.111C276.605 195.91 276.173 195.665 275.89 195.367C275.608 195.07 275.466 194.653 275.466 194.132C275.466 193.708 275.593 193.336 275.838 193.016C276.084 192.696 276.419 192.451 276.835 192.287C277.252 192.123 277.728 192.042 278.249 192.042C278.762 192.042 279.253 192.123 279.722 192.287C280.191 192.451 280.548 192.644 280.801 192.867C280.883 192.942 280.927 193.031 280.927 193.143C280.927 193.254 280.883 193.358 280.801 193.448C280.719 193.537 280.615 193.582 280.503 193.582C280.421 193.582 280.339 193.559 280.265 193.507C280.042 193.358 279.759 193.224 279.424 193.105C279.09 192.986 278.725 192.919 278.346 192.919C277.795 192.919 277.356 193.016 277.029 193.217C276.701 193.418 276.538 193.708 276.538 194.088C276.538 194.37 276.619 194.601 276.791 194.772C276.962 194.943 277.23 195.092 277.602 195.211L279.179 195.717C279.499 195.821 279.767 195.925 279.99 196.037C280.213 196.148 280.414 196.29 280.592 196.453C280.771 196.617 280.905 196.811 280.994 197.034C281.083 197.257 281.128 197.525 281.128 197.815C281.128 198.529 280.868 199.087 280.339 199.489C279.811 199.891 279.097 200.084 278.189 200.084C277.073 200.114 276.181 199.801 275.503 199.169Z" fill="#18181B"/>
<path d="M283.568 199.757C283.167 199.534 282.839 199.206 282.601 198.775C282.363 198.343 282.244 197.837 282.244 197.257C282.244 196.751 282.348 196.283 282.542 195.866C282.743 195.449 283.048 195.107 283.449 194.839C283.851 194.579 284.327 194.445 284.87 194.445C285.295 194.445 285.674 194.519 285.994 194.661C286.314 194.802 286.574 195.003 286.76 195.248C286.954 195.501 287.095 195.777 287.184 196.089C287.281 196.394 287.333 196.736 287.341 197.108C287.341 197.212 287.311 197.302 287.251 197.369C287.192 197.436 287.102 197.473 286.991 197.473H283.234C283.241 198.098 283.412 198.574 283.74 198.901C284.067 199.221 284.491 199.392 285.004 199.4C285.332 199.4 285.622 199.34 285.882 199.221C286.143 199.102 286.403 198.946 286.664 198.745C286.73 198.693 286.797 198.671 286.872 198.671C286.961 198.671 287.036 198.708 287.095 198.775C287.155 198.842 287.184 198.924 287.184 199.013C287.184 199.132 287.132 199.236 287.028 199.325C286.448 199.846 285.756 200.107 284.937 200.107C284.432 200.092 283.97 199.973 283.568 199.757ZM286.485 196.863C286.455 196.349 286.306 195.933 286.053 195.605C285.8 195.278 285.421 195.114 284.93 195.114C284.677 195.114 284.439 195.167 284.238 195.263C284.03 195.36 283.859 195.494 283.725 195.658C283.591 195.821 283.487 196.007 283.405 196.208C283.323 196.409 283.278 196.625 283.256 196.855H286.485V196.863Z" fill="#18181B"/>
<path d="M288.866 199.876C288.769 199.794 288.725 199.683 288.725 199.534V195.018C288.725 194.869 288.777 194.757 288.873 194.683C288.97 194.601 289.089 194.564 289.223 194.564C289.357 194.564 289.476 194.601 289.573 194.683C289.669 194.765 289.714 194.869 289.714 195.01L289.707 195.665C289.796 195.323 289.982 195.04 290.257 194.817C290.533 194.586 290.867 194.475 291.254 194.475C291.373 194.475 291.463 194.519 291.529 194.609C291.596 194.698 291.634 194.802 291.634 194.914C291.634 195.025 291.604 195.114 291.537 195.196C291.47 195.278 291.388 195.315 291.269 195.315C290.778 195.315 290.391 195.442 290.123 195.702C289.848 195.955 289.714 196.297 289.714 196.729V199.549C289.714 199.697 289.662 199.809 289.565 199.891C289.461 199.973 289.35 200.01 289.216 200.01C289.074 199.995 288.963 199.958 288.866 199.876Z" fill="#18181B"/>
<path d="M294.245 199.831C294.126 199.72 294.007 199.526 293.895 199.258L292.184 195.166C292.162 195.122 292.154 195.07 292.154 195.01C292.154 194.884 292.206 194.78 292.311 194.683C292.415 194.586 292.534 194.542 292.66 194.542C292.854 194.542 292.988 194.646 293.062 194.854L294.736 198.976L296.41 194.854C296.492 194.646 296.626 194.542 296.812 194.542C296.938 194.542 297.057 194.586 297.161 194.683C297.266 194.78 297.318 194.884 297.318 195.01C297.318 195.062 297.31 195.114 297.288 195.166L295.577 199.258C295.465 199.526 295.346 199.72 295.227 199.831C295.108 199.943 294.944 199.995 294.736 199.995C294.528 200.002 294.364 199.943 294.245 199.831Z" fill="#18181B"/>
<path d="M299.378 199.757C298.976 199.534 298.649 199.206 298.411 198.775C298.173 198.343 298.054 197.837 298.054 197.257C298.054 196.751 298.15 196.283 298.351 195.866C298.552 195.449 298.857 195.107 299.259 194.839C299.661 194.579 300.137 194.445 300.68 194.445C301.104 194.445 301.484 194.519 301.803 194.661C302.123 194.802 302.384 195.003 302.57 195.248C302.763 195.501 302.905 195.777 302.994 196.089C303.091 196.394 303.143 196.736 303.15 197.108C303.15 197.212 303.12 197.302 303.061 197.369C303.001 197.436 302.912 197.473 302.8 197.473H299.043C299.051 198.098 299.222 198.574 299.549 198.901C299.877 199.221 300.301 199.392 300.814 199.4C301.141 199.4 301.431 199.34 301.692 199.221C301.952 199.102 302.213 198.946 302.473 198.745C302.54 198.693 302.607 198.671 302.681 198.671C302.771 198.671 302.845 198.708 302.905 198.775C302.964 198.842 302.994 198.924 302.994 199.013C302.994 199.132 302.942 199.236 302.838 199.325C302.257 199.846 301.565 200.107 300.747 200.107C300.241 200.092 299.78 199.973 299.378 199.757ZM302.295 196.863C302.265 196.349 302.116 195.933 301.863 195.605C301.61 195.278 301.231 195.114 300.74 195.114C300.487 195.114 300.249 195.167 300.048 195.263C299.839 195.36 299.668 195.494 299.534 195.658C299.4 195.821 299.296 196.007 299.214 196.208C299.133 196.409 299.088 196.625 299.066 196.855H302.295V196.863Z" fill="#18181B"/>
<path d="M304.676 199.876C304.579 199.794 304.534 199.683 304.534 199.534V195.018C304.534 194.869 304.586 194.757 304.683 194.683C304.78 194.601 304.899 194.564 305.033 194.564C305.167 194.564 305.286 194.601 305.382 194.683C305.479 194.765 305.531 194.869 305.531 195.01L305.524 195.665C305.613 195.323 305.799 195.04 306.074 194.817C306.35 194.586 306.684 194.475 307.071 194.475C307.19 194.475 307.28 194.519 307.346 194.609C307.413 194.698 307.451 194.802 307.451 194.914C307.451 195.025 307.421 195.114 307.354 195.196C307.294 195.278 307.205 195.315 307.086 195.315C306.595 195.315 306.208 195.442 305.94 195.702C305.665 195.955 305.531 196.297 305.531 196.729V199.549C305.531 199.697 305.479 199.809 305.382 199.891C305.278 199.973 305.167 200.01 305.025 200.01C304.884 199.995 304.772 199.958 304.676 199.876Z" fill="#18181B"/>
<path d="M311.997 199.831C311.885 199.727 311.833 199.601 311.833 199.459V192.704C311.833 192.562 311.885 192.436 311.982 192.332C312.079 192.227 312.205 192.168 312.354 192.168H316.416C316.557 192.168 316.662 192.213 316.736 192.294C316.81 192.384 316.848 192.48 316.848 192.607C316.848 192.726 316.81 192.83 316.736 192.919C316.662 193.009 316.55 193.053 316.416 193.053H312.942V195.546H316.23C316.371 195.546 316.483 195.59 316.557 195.672C316.632 195.754 316.669 195.858 316.669 195.97C316.669 196.089 316.632 196.186 316.55 196.275C316.468 196.364 316.364 196.401 316.223 196.401H312.934V199.109H316.55C316.691 199.109 316.795 199.154 316.87 199.243C316.944 199.333 316.981 199.437 316.981 199.556C316.981 199.675 316.944 199.779 316.87 199.868C316.795 199.958 316.684 199.995 316.55 199.995H312.376C312.235 199.995 312.108 199.943 311.997 199.831Z" fill="#18181B"/>
<path d="M318.64 199.876C318.544 199.794 318.499 199.683 318.499 199.534V195.018C318.499 194.869 318.551 194.757 318.648 194.683C318.745 194.601 318.864 194.564 318.998 194.564C319.131 194.564 319.25 194.601 319.347 194.683C319.444 194.765 319.496 194.869 319.496 195.01L319.489 195.665C319.578 195.323 319.764 195.04 320.039 194.817C320.314 194.586 320.649 194.475 321.036 194.475C321.155 194.475 321.244 194.519 321.311 194.609C321.378 194.698 321.416 194.802 321.416 194.914C321.416 195.025 321.386 195.114 321.319 195.196C321.259 195.278 321.17 195.315 321.051 195.315C320.56 195.315 320.173 195.442 319.905 195.702C319.63 195.955 319.496 196.297 319.496 196.729V199.549C319.496 199.697 319.444 199.809 319.347 199.891C319.25 199.973 319.131 200.01 318.998 200.01C318.849 199.995 318.737 199.958 318.64 199.876Z" fill="#18181B"/>
<path d="M322.629 199.876C322.532 199.794 322.487 199.683 322.487 199.534V195.018C322.487 194.869 322.539 194.757 322.636 194.683C322.733 194.601 322.852 194.564 322.986 194.564C323.12 194.564 323.239 194.601 323.335 194.683C323.432 194.765 323.484 194.869 323.484 195.01L323.477 195.665C323.566 195.323 323.752 195.04 324.027 194.817C324.303 194.586 324.637 194.475 325.024 194.475C325.143 194.475 325.233 194.519 325.3 194.609C325.367 194.698 325.404 194.802 325.404 194.914C325.404 195.025 325.374 195.114 325.307 195.196C325.248 195.278 325.158 195.315 325.039 195.315C324.548 195.315 324.161 195.442 323.893 195.702C323.626 195.963 323.484 196.297 323.484 196.729V199.549C323.484 199.697 323.432 199.809 323.335 199.891C323.239 199.973 323.12 200.01 322.986 200.01C322.837 199.995 322.725 199.958 322.629 199.876Z" fill="#18181B"/>
<path d="M326.832 199.296C326.333 198.767 326.088 198.09 326.088 197.272C326.088 196.446 326.333 195.769 326.832 195.241C327.33 194.713 327.993 194.445 328.833 194.445C329.674 194.445 330.344 194.705 330.835 195.233C331.333 195.762 331.579 196.439 331.579 197.272C331.579 198.09 331.333 198.767 330.842 199.296C330.351 199.824 329.681 200.092 328.841 200.092C328 200.092 327.33 199.831 326.832 199.296ZM330.135 198.842C330.44 198.462 330.597 197.934 330.597 197.272C330.597 196.61 330.44 196.089 330.128 195.702C329.815 195.315 329.384 195.122 328.841 195.122C328.29 195.122 327.859 195.315 327.546 195.702C327.234 196.089 327.077 196.61 327.077 197.279C327.077 197.934 327.234 198.455 327.539 198.842C327.844 199.229 328.275 199.422 328.826 199.422C329.391 199.415 329.823 199.221 330.135 198.842Z" fill="#18181B"/>
<path d="M332.963 199.876C332.866 199.794 332.821 199.683 332.821 199.534V195.018C332.821 194.869 332.873 194.757 332.97 194.683C333.067 194.601 333.186 194.564 333.32 194.564C333.454 194.564 333.573 194.601 333.669 194.683C333.766 194.765 333.818 194.869 333.818 195.01L333.811 195.665C333.9 195.323 334.086 195.04 334.361 194.817C334.637 194.586 334.971 194.475 335.358 194.475C335.477 194.475 335.567 194.519 335.634 194.609C335.701 194.698 335.738 194.802 335.738 194.914C335.738 195.025 335.708 195.114 335.641 195.196C335.582 195.278 335.492 195.315 335.373 195.315C334.882 195.315 334.495 195.442 334.227 195.702C333.952 195.955 333.818 196.297 333.818 196.729V199.549C333.818 199.697 333.766 199.809 333.669 199.891C333.565 199.973 333.454 200.01 333.32 200.01C333.171 199.995 333.059 199.958 332.963 199.876Z" fill="#18181B"/>
<path d="M235.699 174.93C235.096 174.386 234.799 173.702 234.799 172.884C234.799 172.028 235.111 171.239 235.744 170.518C236.376 169.796 237.075 169.439 237.864 169.439C238.117 169.439 238.377 169.483 238.63 169.573C238.883 169.662 239.129 169.803 239.367 169.982C241.822 171.894 244.449 172.846 247.231 172.846C249.359 172.846 251.003 172.288 252.149 171.165C253.295 170.049 253.868 168.39 253.868 166.21C253.868 164.119 253.25 162.482 252.022 161.307C250.795 160.131 249.247 159.544 247.395 159.544C245.267 159.544 243.206 160.288 241.22 161.783C240.855 162.096 240.342 162.244 239.687 162.244C238.683 162.244 237.753 161.91 236.904 161.233C236.049 160.555 235.617 159.648 235.617 158.502V142.997C235.617 141.45 235.989 140.393 236.741 139.828C237.485 139.262 238.735 138.979 240.483 138.979H256.925C257.818 138.979 258.532 139.255 259.068 139.798C259.604 140.341 259.872 141.092 259.872 142.037C259.872 142.982 259.589 143.726 259.023 144.262C258.458 144.798 257.669 145.065 256.65 145.065H242.581L242.447 155.474L243.266 154.983C243.809 154.656 244.709 154.328 245.966 154.001C247.224 153.673 248.555 153.51 249.954 153.51C253.525 153.51 256.434 154.633 258.681 156.873C260.928 159.112 262.052 162.185 262.052 166.076C262.052 168.717 261.404 171.038 260.11 173.04C258.815 175.041 257.067 176.566 254.865 177.601C252.662 178.642 250.185 179.155 247.432 179.155C242.961 179.163 239.047 177.757 235.699 174.93Z" fill="#031947"/>
<path d="M276.083 178.233C274.328 177.504 272.877 176.514 271.738 175.272C270.6 174.022 269.655 172.519 268.911 170.748C268.167 168.985 267.639 167.117 267.327 165.161C267.014 163.204 266.865 161.084 266.865 158.807C266.865 156.567 267.021 154.484 267.327 152.55C267.632 150.623 268.16 148.77 268.896 147.007C269.633 145.244 270.57 143.741 271.694 142.498C272.825 141.263 274.268 140.274 276.039 139.537C277.802 138.801 279.811 138.429 282.05 138.429C284.253 138.429 286.224 138.786 287.965 139.508C289.706 140.229 291.142 141.204 292.28 142.431C293.419 143.659 294.363 145.154 295.122 146.91C295.874 148.666 296.417 150.519 296.737 152.468C297.057 154.417 297.213 156.53 297.213 158.807C297.213 161.069 297.057 163.174 296.752 165.131C296.439 167.088 295.911 168.948 295.167 170.718C294.423 172.482 293.478 173.992 292.34 175.242C291.201 176.492 289.758 177.481 288.01 178.218C286.261 178.954 284.275 179.326 282.058 179.326C279.826 179.326 277.839 178.962 276.083 178.233ZM285.435 171.886C286.343 171.165 287.028 170.116 287.474 168.732C287.92 167.348 288.233 165.882 288.404 164.335C288.575 162.787 288.664 160.95 288.664 158.814C288.664 157.14 288.62 155.667 288.531 154.402C288.441 153.138 288.255 151.873 287.973 150.608C287.69 149.343 287.31 148.302 286.842 147.491C286.365 146.68 285.733 146.025 284.93 145.526C284.126 145.028 283.174 144.775 282.065 144.775C281.135 144.775 280.317 144.939 279.61 145.266C278.903 145.593 278.308 146.084 277.832 146.724C277.356 147.372 276.961 148.101 276.641 148.912C276.321 149.723 276.076 150.682 275.905 151.791C275.734 152.9 275.615 154.001 275.548 155.094C275.481 156.188 275.451 157.423 275.451 158.807C275.451 160.191 275.481 161.433 275.548 162.534C275.607 163.635 275.726 164.744 275.905 165.867C276.076 166.983 276.321 167.958 276.641 168.776C276.961 169.595 277.356 170.331 277.832 170.979C278.308 171.626 278.896 172.117 279.61 172.452C280.317 172.787 281.143 172.958 282.065 172.958C283.397 172.965 284.528 172.601 285.435 171.886Z" fill="#031947"/>
<path d="M310.664 178.233C308.909 177.504 307.458 176.514 306.319 175.272C305.181 174.022 304.236 172.519 303.492 170.748C302.748 168.985 302.22 167.117 301.908 165.161C301.595 163.204 301.446 161.084 301.446 158.807C301.446 156.567 301.603 154.484 301.908 152.55C302.213 150.623 302.741 148.77 303.477 147.007C304.214 145.244 305.151 143.741 306.275 142.498C307.406 141.263 308.849 140.274 310.62 139.537C312.383 138.801 314.392 138.429 316.631 138.429C318.834 138.429 320.805 138.786 322.546 139.508C324.287 140.229 325.723 141.204 326.861 142.431C328 143.659 328.945 145.154 329.703 146.91C330.455 148.666 330.998 150.519 331.318 152.468C331.638 154.417 331.794 156.53 331.794 158.807C331.794 161.069 331.638 163.174 331.333 165.131C331.02 167.088 330.492 168.948 329.748 170.718C329.004 172.482 328.059 173.992 326.921 175.242C325.783 176.492 324.339 177.481 322.591 178.218C320.842 178.954 318.856 179.326 316.639 179.326C314.414 179.326 312.42 178.962 310.664 178.233ZM320.024 171.886C320.932 171.165 321.616 170.116 322.063 168.732C322.509 167.348 322.821 165.882 322.993 164.335C323.164 162.787 323.253 160.95 323.253 158.814C323.253 157.14 323.208 155.667 323.119 154.402C323.03 153.138 322.844 151.873 322.561 150.608C322.278 149.343 321.899 148.302 321.43 147.491C320.954 146.68 320.322 146.025 319.518 145.526C318.715 145.028 317.762 144.775 316.654 144.775C315.724 144.775 314.905 144.939 314.198 145.266C313.492 145.593 312.896 146.084 312.42 146.724C311.944 147.372 311.55 148.101 311.23 148.912C310.91 149.723 310.664 150.682 310.493 151.791C310.322 152.9 310.203 154.001 310.136 155.094C310.069 156.188 310.039 157.423 310.039 158.807C310.039 160.191 310.069 161.433 310.136 162.534C310.196 163.635 310.315 164.744 310.493 165.867C310.664 166.983 310.91 167.958 311.23 168.776C311.55 169.595 311.944 170.331 312.42 170.979C312.896 171.626 313.484 172.117 314.198 172.452C314.905 172.787 315.731 172.958 316.654 172.958C317.978 172.965 319.109 172.601 320.024 171.886Z" fill="#031947"/>
<path d="M113.84 251.874C113.84 251.874 120.923 250.468 126.994 255.148C133.072 259.82 137.692 271.702 140.081 288.337C142.469 304.966 143.823 312.175 157.84 314.511C171.864 316.847 205.516 315.91 225.618 315.449C245.721 314.98 244.784 296.283 227.955 294.416C211.125 292.548 199.482 297.035 181.931 293.158C164.38 289.275 197.57 284.134 222.806 287.876C248.05 291.618 259.27 292.548 272.825 291.15" stroke="#021335" stroke-width="2.5131" stroke-miterlimit="10" stroke-linecap="round" stroke-linejoin="round"/>
<path d="M113.84 226.995C113.84 226.995 127.462 227.106 131.205 241.131C134.947 255.155 136.346 274.789 136.815 290.212C137.283 305.635 137.752 318.722 155.511 322.465C173.271 326.207 221.422 324.801 234.509 321.996C247.596 319.191 262.089 306.573 251.338 303.768C240.588 300.963 225.633 303.768 231.236 307.51C236.845 311.253 251.8 310.315 269.566 307.979" stroke="#021335" stroke-width="2.5131" stroke-miterlimit="10" stroke-linecap="round" stroke-linejoin="round"/>
<path d="M116.63 275.794C116.63 275.794 124.955 275.072 128.206 284.476C131.465 293.888 127.485 296.053 129.293 300.762C131.101 305.472 142.521 301.075 142.469 304.973C142.424 308.53 137.908 309.534 111.928 308.001C77.9566 306 55.4804 311.26 57.2883 314.511C59.0962 317.77 86.2373 315.233 79.7199 320.3C73.2024 325.366 57.2883 319.578 44.9825 319.213C32.6768 318.849 30.5117 321.743 30.5117 321.743" stroke="#021335" stroke-width="2.5131" stroke-miterlimit="10" stroke-linecap="round" stroke-linejoin="round"/>
<path d="M117.642 142.878H35.8391C34.3734 142.878 33.1904 144.061 33.1904 145.527V300.487C33.1904 301.953 34.3734 303.136 35.8391 303.136H117.642C119.108 303.136 120.291 301.953 120.291 300.487V145.527C120.291 144.068 119.1 142.878 117.642 142.878Z" fill="#3E2802" stroke="#3E2802" stroke-width="1.2565" stroke-miterlimit="10" stroke-linecap="round" stroke-linejoin="round"/>
<path d="M118.162 166.887H35.2734V228.274H118.162V166.887Z" fill="#F4E6CB"/>
<path d="M118.162 238.251H35.2734V299.639H118.162V238.251Z" fill="#F4E6CB"/>
<path d="M107.88 245.729H60.8223V293.717H107.88V245.729Z" fill="#D0B98F" stroke="#3E2802" stroke-width="1.2565" stroke-miterlimit="10" stroke-linecap="round" stroke-linejoin="round"/>
<path d="M107.88 173.747H60.8223V185.591H107.88V173.747Z" fill="#D0B98F" stroke="#3E2802" stroke-width="1.2565" stroke-miterlimit="10" stroke-linecap="round" stroke-linejoin="round"/>
<path d="M107.88 196.491H60.8223V208.335H107.88V196.491Z" fill="#D0B98F" stroke="#3E2802" stroke-width="1.2565" stroke-miterlimit="10" stroke-linecap="round" stroke-linejoin="round"/>
<path d="M106.304 168.263L105.396 170.756H63.7097L62.802 168.263H53.9707V179.215H62.802L63.7097 176.722H105.396L106.304 179.215H116.303V168.263H106.304Z" fill="#3E2802" stroke="#3E2802" stroke-width="1.2565" stroke-miterlimit="10" stroke-linecap="round" stroke-linejoin="round"/>
<path d="M106.304 180.212L105.396 182.697H63.7097L62.802 180.212H53.9707V191.156H62.802L63.7097 188.671H105.396L106.304 191.156H116.303V180.212H106.304Z" fill="#3E2802" stroke="#3E2802" stroke-width="1.2565" stroke-miterlimit="10" stroke-linecap="round" stroke-linejoin="round"/>
<path d="M106.304 192.153L105.396 194.638H63.7097L62.802 192.153H53.9707V203.105H62.802L63.7097 200.612H105.396L106.304 203.105H116.303V192.153H106.304Z" fill="#3E2802" stroke="#3E2802" stroke-width="1.2565" stroke-miterlimit="10" stroke-linecap="round" stroke-linejoin="round"/>
<path d="M106.304 204.102L105.396 206.587H63.7097L62.802 204.102H53.9707V215.046H62.802L63.7097 212.561H105.396L106.304 215.046H116.303V204.102H106.304Z" fill="#3E2802" stroke="#3E2802" stroke-width="1.2565" stroke-miterlimit="10" stroke-linecap="round" stroke-linejoin="round"/>
<path d="M106.304 216.043L105.396 218.528H63.7097L62.802 216.043H53.9707V226.995H62.802L63.7097 224.502H105.396L106.304 226.995H116.303V216.043H106.304Z" fill="#3E2802" stroke="#3E2802" stroke-width="1.2565" stroke-miterlimit="10" stroke-linecap="round" stroke-linejoin="round"/>
<path d="M106.304 239.933L105.396 242.418H63.7097L62.802 239.933H53.9707V250.884H62.802L63.7097 248.392H105.396L106.304 250.884H116.303V239.933H106.304Z" fill="#3E2802" stroke="#3E2802" stroke-width="1.2565" stroke-miterlimit="10" stroke-linecap="round" stroke-linejoin="round"/>
<path d="M106.304 251.874L105.396 254.366H63.7097L62.802 251.874H53.9707V262.826H62.802L63.7097 260.341H105.396L106.304 262.826H116.303V251.874H106.304Z" fill="#3E2802" stroke="#3E2802" stroke-width="1.2565" stroke-miterlimit="10" stroke-linecap="round" stroke-linejoin="round"/>
<path d="M106.304 263.823L105.396 266.308H63.7097L62.802 263.823H53.9707V274.767H62.802L63.7097 272.282H105.396L106.304 274.767H116.303V263.823H106.304Z" fill="#3E2802" stroke="#3E2802" stroke-width="1.2565" stroke-miterlimit="10" stroke-linecap="round" stroke-linejoin="round"/>
<path d="M106.304 275.764L105.396 278.256H63.7097L62.802 275.764H53.9707V286.715H62.802L63.7097 284.223H105.396L106.304 286.715H116.303V275.764H106.304Z" fill="#3E2802" stroke="#3E2802" stroke-width="1.2565" stroke-miterlimit="10" stroke-linecap="round" stroke-linejoin="round"/>
<path d="M106.304 287.712L105.396 290.197H63.7097L62.802 287.712H53.9707V298.657H62.802L63.7097 296.172H105.396L106.304 298.657H116.303V287.712H106.304Z" fill="#3E2802" stroke="#3E2802" stroke-width="1.2565" stroke-miterlimit="10" stroke-linecap="round" stroke-linejoin="round"/>
<path d="M116.288 230.187H36.9404V237.664H116.288V230.187Z" fill="white"/>
<path d="M43.6364 233.847C43.6364 232.694 42.6989 231.756 41.5457 231.756C40.3925 231.756 39.4551 232.694 39.4551 233.847C39.4551 235 40.3925 235.938 41.5457 235.938C42.6989 235.938 43.6364 235 43.6364 233.847Z" fill="#3E2802" stroke="#3E2802" stroke-width="1.2565" stroke-miterlimit="10" stroke-linecap="round" stroke-linejoin="round"/>
<path d="M48.5096 235.938C49.6642 235.938 50.6002 235.002 50.6002 233.847C50.6002 232.692 49.6642 231.756 48.5096 231.756C47.355 231.756 46.4189 232.692 46.4189 233.847C46.4189 235.002 47.355 235.938 48.5096 235.938Z" fill="#D0B98F" stroke="#3E2802" stroke-width="1.2565" stroke-miterlimit="10" stroke-linecap="round" stroke-linejoin="round"/>
<path d="M57.5641 233.847C57.5641 232.694 56.6267 231.756 55.4735 231.756C54.3203 231.756 53.3828 232.694 53.3828 233.847C53.3828 235 54.3203 235.938 55.4735 235.938C56.6267 235.938 57.5641 235 57.5641 233.847Z" fill="#3E2802" stroke="#3E2802" stroke-width="1.2565" stroke-miterlimit="10" stroke-linecap="round" stroke-linejoin="round"/>
<path d="M116.288 158.517H36.9404V165.994H116.288V158.517Z" fill="white"/>
<path d="M43.6364 162.17C43.6364 161.017 42.6989 160.079 41.5457 160.079C40.3925 160.079 39.4551 161.017 39.4551 162.17C39.4551 163.323 40.3925 164.26 41.5457 164.26C42.6989 164.26 43.6364 163.33 43.6364 162.17Z" fill="white" stroke="#3E2802" stroke-width="1.2565" stroke-miterlimit="10" stroke-linecap="round" stroke-linejoin="round"/>
<path d="M50.6002 162.17C50.6002 161.017 49.6628 160.079 48.5096 160.079C47.3564 160.079 46.4189 161.017 46.4189 162.17C46.4189 163.323 47.3564 164.26 48.5096 164.26C49.6628 164.26 50.6002 163.33 50.6002 162.17Z" fill="#D0B98F" stroke="#3E2802" stroke-width="1.2565" stroke-miterlimit="10" stroke-linecap="round" stroke-linejoin="round"/>
<path d="M57.5641 162.17C57.5641 161.017 56.6267 160.079 55.4735 160.079C54.3203 160.079 53.3828 161.017 53.3828 162.17C53.3828 163.323 54.3203 164.26 55.4735 164.26C56.6267 164.26 57.5641 163.33 57.5641 162.17Z" fill="white" stroke="#3E2802" stroke-width="1.2565" stroke-miterlimit="10" stroke-linecap="round" stroke-linejoin="round"/>
<path d="M116.288 148.897H36.9404V156.374H116.288V148.897Z" fill="white"/>
<path d="M43.6364 152.557C43.6364 151.404 42.6989 150.467 41.5457 150.467C40.3925 150.467 39.4551 151.404 39.4551 152.557C39.4551 153.711 40.3925 154.648 41.5457 154.648C42.6989 154.648 43.6364 153.711 43.6364 152.557Z" fill="#D0B98F" stroke="#3E2802" stroke-width="1.2565" stroke-miterlimit="10" stroke-linecap="round" stroke-linejoin="round"/>
<path d="M50.6002 152.557C50.6002 151.404 49.6628 150.467 48.5096 150.467C47.3564 150.467 46.4189 151.404 46.4189 152.557C46.4189 153.711 47.3564 154.648 48.5096 154.648C49.6628 154.648 50.6002 153.711 50.6002 152.557Z" fill="#3E2802" stroke="#3E2802" stroke-width="1.2565" stroke-miterlimit="10" stroke-linecap="round" stroke-linejoin="round"/>
<path d="M57.5641 152.557C57.5641 151.404 56.6267 150.467 55.4735 150.467C54.3203 150.467 53.3828 151.404 53.3828 152.557C53.3828 153.711 54.3203 154.648 55.4735 154.648C56.6267 154.648 57.5641 153.711 57.5641 152.557Z" fill="#3E2802" stroke="#3E2802" stroke-width="1.2565" stroke-miterlimit="10" stroke-linecap="round" stroke-linejoin="round"/>
<path d="M50.2276 168.449H37.1406V174.059H50.2276V168.449Z" fill="#3E2802" stroke="#3E2802" stroke-width="1.2565" stroke-miterlimit="10" stroke-linecap="round" stroke-linejoin="round"/>
<path d="M50.2276 180.599H37.1406V186.208H50.2276V180.599Z" fill="#3E2802" stroke="#3E2802" stroke-width="1.2565" stroke-miterlimit="10" stroke-linecap="round" stroke-linejoin="round"/>
<path d="M50.2276 192.756H37.1406V198.366H50.2276V192.756Z" fill="#D0B98F" stroke="#3E2802" stroke-width="1.2565" stroke-miterlimit="10" stroke-linecap="round" stroke-linejoin="round"/>
<path d="M50.2276 204.905H37.1406V210.515H50.2276V204.905Z" fill="#D0B98F" stroke="#3E2802" stroke-width="1.2565" stroke-miterlimit="10" stroke-linecap="round" stroke-linejoin="round"/>
<path d="M50.2276 217.062H37.1406V222.672H50.2276V217.062Z" fill="#D0B98F" stroke="#3E2802" stroke-width="1.2565" stroke-miterlimit="10" stroke-linecap="round" stroke-linejoin="round"/>
<path d="M50.2276 239.806H37.1406V245.416H50.2276V239.806Z" fill="#D0B98F" stroke="#3E2802" stroke-width="1.2565" stroke-miterlimit="10" stroke-linecap="round" stroke-linejoin="round"/>
<path d="M50.2276 251.963H37.1406V257.573H50.2276V251.963Z" fill="#3E2802" stroke="#3E2802" stroke-width="1.2565" stroke-miterlimit="10" stroke-linecap="round" stroke-linejoin="round"/>
<path d="M50.2276 264.113H37.1406V269.723H50.2276V264.113Z" fill="#D0B98F" stroke="#3E2802" stroke-width="1.2565" stroke-miterlimit="10" stroke-linecap="round" stroke-linejoin="round"/>
<path d="M50.2276 276.27H37.1406V281.879H50.2276V276.27Z" fill="#3E2802" stroke="#3E2802" stroke-width="1.2565" stroke-miterlimit="10" stroke-linecap="round" stroke-linejoin="round"/>
<path d="M50.2276 288.419H37.1406V294.029H50.2276V288.419Z" fill="#D0B98F" stroke="#3E2802" stroke-width="1.2565" stroke-miterlimit="10" stroke-linecap="round" stroke-linejoin="round"/>
<path d="M159.841 108.892C159.841 108.892 147.305 112.084 143.823 116.853C140.341 121.614 126.227 154.053 126.227 154.053C126.227 154.053 121.644 159.186 126.592 164.134C131.539 169.082 141.434 170.912 145.102 166.515C148.77 162.118 154.082 141.405 154.811 139.024C155.548 136.643 161.039 116.481 161.589 115.38C162.14 114.286 162.668 109.547 159.841 108.892Z" fill="#F4E6CB" stroke="#3E2802" stroke-width="1.2565" stroke-miterlimit="10" stroke-linecap="round" stroke-linejoin="round"/>
<path d="M159.841 108.892C159.841 108.892 147.305 112.084 143.823 116.853C141.717 119.74 135.713 132.752 131.309 142.58C133.451 142.149 142.379 140.825 152.833 146.092C153.844 142.58 154.581 139.805 154.819 139.024C155.556 136.643 161.046 116.481 161.597 115.387C162.14 114.286 162.668 109.547 159.841 108.892Z" fill="#0B2A70" stroke="#3E2802" stroke-width="1.2565" stroke-miterlimit="10" stroke-linecap="round" stroke-linejoin="round"/>
<path d="M196.595 66.6405C196.595 66.6405 200.077 68.4707 201.542 71.9527C203.008 75.4346 203.008 80.7467 203.008 80.7467C203.008 80.7467 226.466 80.0102 235.446 79.8316C244.426 79.6456 250.475 81.8479 250.654 86.2449C250.84 90.6419 248.823 99.2574 243.876 102.553C238.928 105.849 223.535 100.537 215.656 98.3349C207.777 96.1326 205.024 96.8692 199.347 96.1327C193.663 95.3961 192.019 93.2013 191.104 89.7194C190.189 86.2374 192.019 79.6382 192.019 74.326C192.012 69.0213 191.282 65.5394 196.595 66.6405Z" fill="#F4E6CB" stroke="#3E2802" stroke-width="1.2565" stroke-miterlimit="10" stroke-linecap="round" stroke-linejoin="round"/>
<path d="M230.862 89.1759C230.862 89.1759 227.567 97.6054 221.518 102.188C217.18 105.477 211.325 107.352 208.371 108.14C197.807 105.179 182.874 103.766 174.147 105.708C174.147 105.708 161.953 108.624 159.84 108.884C157.72 109.152 152.683 126.108 151.626 137.774C150.57 149.432 154.015 178.322 154.015 180.442C154.015 182.563 155.339 217.806 157.459 227.612C159.58 237.418 161.968 250.669 162.228 252.521C162.496 254.374 164.349 268.16 164.349 272.661C164.349 277.162 162.228 288.032 162.228 288.032C162.228 288.032 152.69 294.393 148.978 298.106C145.265 301.819 151.708 305.717 156.395 306.588C164.393 308.068 173.887 300.226 173.887 300.226C173.887 300.226 184.37 296.038 184.489 295.986C187.309 294.855 188.142 291.827 188.216 289.111C188.38 282.571 188.544 276.031 188.715 269.492C190.381 276.441 191.75 283.471 192.814 290.539C193.253 293.441 193.692 296.484 195.448 298.835C196.333 300.025 197.762 301.469 199.123 302.101C200.18 302.592 201.303 302.488 202.36 303.098C204.316 304.229 205.12 306.669 207.025 307.897C210.76 310.3 216.154 311.535 220.536 311.364C220.536 311.364 231.138 311.892 231.666 306.067C232.194 300.234 217.887 290.696 217.887 290.696C217.887 290.696 215.767 252 214.175 239.285C212.582 226.563 208.342 205.895 208.342 196.885C208.342 187.875 212.582 145.474 212.582 145.474C212.582 145.474 213.014 144.358 213.676 142.536C213.907 142.409 214.137 142.283 214.375 142.149C220.424 138.667 237.283 125.104 242.781 116.496C248.041 108.252 249.946 92.7843 250.102 88.2607" fill="#F4E6CB"/>
<path d="M230.862 89.1759C230.862 89.1759 227.567 97.6054 221.518 102.188C217.18 105.477 211.325 107.352 208.371 108.14C197.807 105.179 182.874 103.766 174.147 105.708C174.147 105.708 161.953 108.624 159.84 108.884C157.72 109.152 152.683 126.108 151.626 137.774C150.57 149.432 154.015 178.322 154.015 180.442C154.015 182.563 155.339 217.806 157.459 227.612C159.58 237.418 161.968 250.669 162.228 252.521C162.496 254.374 164.349 268.16 164.349 272.661C164.349 277.162 162.228 288.032 162.228 288.032C162.228 288.032 152.69 294.393 148.978 298.106C145.265 301.819 151.708 305.717 156.395 306.588C164.393 308.068 173.887 300.226 173.887 300.226C173.887 300.226 184.37 296.038 184.489 295.986C187.309 294.855 188.142 291.827 188.216 289.111C188.38 282.571 188.544 276.031 188.715 269.492C190.381 276.441 191.75 283.471 192.814 290.539C193.253 293.441 193.692 296.484 195.448 298.835C196.333 300.025 197.762 301.469 199.123 302.101C200.18 302.592 201.303 302.488 202.36 303.098C204.316 304.229 205.12 306.669 207.025 307.897C210.76 310.3 216.154 311.535 220.536 311.364C220.536 311.364 231.138 311.892 231.666 306.067C232.194 300.234 217.887 290.696 217.887 290.696C217.887 290.696 215.767 252 214.175 239.285C212.582 226.563 208.342 205.895 208.342 196.885C208.342 187.875 212.582 145.474 212.582 145.474C212.582 145.474 213.014 144.358 213.676 142.536C213.907 142.409 214.137 142.283 214.375 142.149C220.424 138.667 237.283 125.104 242.781 116.496C248.041 108.252 249.946 92.7843 250.102 88.2607" stroke="#3E2802" stroke-width="1.2565" stroke-miterlimit="10" stroke-linecap="round" stroke-linejoin="round"/>
<path d="M231.659 306.059C232.187 300.226 217.88 290.688 217.88 290.688C217.88 290.688 217.716 287.705 217.448 283.137C208.476 285.317 199.868 286.105 192.093 286.098C192.346 287.578 192.584 289.059 192.814 290.54C193.253 293.441 193.692 296.484 195.448 298.835C196.334 300.026 197.762 301.469 199.124 302.101C200.18 302.592 201.303 302.488 202.36 303.098C204.317 304.229 205.12 306.669 207.025 307.897C210.76 310.3 216.154 311.535 220.536 311.364C220.528 311.357 231.123 311.892 231.659 306.059Z" fill="#0B2A70" stroke="#3E2802" stroke-width="1.2565" stroke-miterlimit="10" stroke-linecap="round" stroke-linejoin="round"/>
<path d="M184.482 295.993C187.302 294.862 188.135 291.834 188.21 289.118C188.232 288.092 188.262 287.065 188.284 286.038C177.615 285.674 168.813 283.903 163.219 282.452C162.713 285.547 162.222 288.04 162.222 288.04C162.222 288.04 152.684 294.401 148.971 298.113C145.258 301.826 151.701 305.724 156.389 306.595C164.387 308.075 173.88 300.234 173.88 300.234C173.88 300.234 184.363 296.038 184.482 295.993Z" fill="#0B2A70" stroke="#3E2802" stroke-width="1.2565" stroke-miterlimit="10" stroke-linecap="round" stroke-linejoin="round"/>
<path d="M231.659 306.06C231.667 305.978 231.659 305.889 231.659 305.799C230.022 307.034 227.508 308.329 223.765 308.998C215.388 310.486 207.762 306.208 205.708 304.348C203.662 302.488 202.36 301 199.191 298.954C196.029 296.908 193.157 291.872 193.157 291.872L193.038 292.058C193.432 294.476 193.983 296.901 195.434 298.843C196.319 300.033 197.748 301.477 199.109 302.109C200.166 302.6 201.289 302.496 202.346 303.106C204.302 304.237 205.106 306.677 207.01 307.905C210.745 310.308 216.139 311.543 220.521 311.372C220.529 311.357 231.123 311.893 231.659 306.06Z" fill="white" stroke="#3E2802" stroke-width="1.2565" stroke-miterlimit="10" stroke-linecap="round" stroke-linejoin="round"/>
<path d="M184.482 295.993C186.944 295.011 187.889 292.578 188.135 290.175C185.702 291.626 180.055 294.915 176.484 296.343C171.834 298.203 168.664 303.791 159.543 303.791C153.04 303.791 149.484 301.239 147.966 299.773C147.163 302.92 152.393 305.851 156.388 306.595C164.386 308.076 173.88 300.234 173.88 300.234C173.88 300.234 184.363 296.038 184.482 295.993Z" fill="white" stroke="#3E2802" stroke-width="1.2565" stroke-miterlimit="10" stroke-linecap="round" stroke-linejoin="round"/>
<path d="M218.907 103.915C215.053 106.154 210.76 107.501 208.364 108.148C197.8 105.187 182.868 103.773 174.14 105.715C174.14 105.715 161.946 108.632 159.833 108.892C157.713 109.16 152.676 126.116 151.62 137.781C150.965 144.976 152.029 158.732 152.936 168.71C175.018 176.804 198.573 174.029 210.091 171.819C211.259 158.613 212.568 145.467 212.568 145.467C212.568 145.467 213 144.351 213.662 142.528C213.892 142.402 214.123 142.275 214.361 142.141C218.468 139.775 227.567 132.759 234.702 125.803C220.388 121.644 218.654 110.35 218.907 103.915Z" fill="#0B2A70" stroke="#3E2802" stroke-width="1.2565" stroke-miterlimit="10" stroke-linecap="round" stroke-linejoin="round"/>
<path d="M198.372 116.555C198.372 112.039 196.029 107.992 192.346 105.246C185.575 104.592 178.931 104.644 174.148 105.708C174.148 105.708 170.777 106.511 167.273 107.315C164.944 109.859 163.538 113.066 163.538 116.555C163.538 124.821 171.335 131.524 180.955 131.524C190.575 131.524 198.372 124.821 198.372 116.555Z" fill="#031947" stroke="#3E2802" stroke-width="1.2565" stroke-miterlimit="10" stroke-linecap="round" stroke-linejoin="round"/>
<path d="M193.157 291.864C195.426 292.712 199.66 293.858 205.552 293.605C214.696 293.211 217.873 290.688 217.873 290.688C217.873 290.688 215.753 251.993 214.16 239.278C212.568 226.556 208.327 205.887 208.327 196.878C208.327 191.565 209.801 174.662 211.013 161.664C210.827 161.686 210.634 161.709 210.448 161.731C203.975 162.475 198.35 157.319 198.544 150.809L198.797 142.35C198.797 142.35 190.449 143.146 178.128 141.755C165.808 140.363 153.085 136.189 153.085 136.189L151.746 136.599C151.702 136.993 151.664 137.387 151.627 137.774C150.571 149.433 154.015 178.322 154.015 180.443C154.015 182.563 155.34 217.806 157.46 227.612C159.581 237.418 161.969 250.669 162.229 252.521C162.497 254.374 164.35 268.16 164.35 272.661C164.35 277.088 162.304 287.631 162.229 288.018C163.821 288.509 167.154 289.52 173.159 291.217C182.302 293.798 188.195 290.688 188.195 290.688C188.195 287.512 188.723 269.484 188.723 269.484C188.723 269.484 192.071 284.736 193.157 291.864Z" fill="white" stroke="#3E2802" stroke-width="1.2565" stroke-miterlimit="10" stroke-linecap="round" stroke-linejoin="round"/>
<path d="M162.884 147.35L186.685 151.263V165.942L173.315 179.312L162.557 166.262L162.884 147.35Z" stroke="#3E2802" stroke-width="1.2565" stroke-miterlimit="10" stroke-linecap="round" stroke-linejoin="round"/>
<path d="M180.063 229.852C178.344 220.165 177.064 210.619 177.064 203.76L167.526 197.398" stroke="#3E2802" stroke-width="1.2565" stroke-miterlimit="10" stroke-linecap="round" stroke-linejoin="round"/>
<path d="M188.723 269.492C188.723 269.492 184.705 253.965 181.387 236.964" stroke="#3E2802" stroke-width="1.2565" stroke-miterlimit="10" stroke-linecap="round" stroke-linejoin="round"/>
<path d="M195.813 187.287C196.022 188.091 196.334 188.917 196.803 189.742C199.734 194.958 203.975 195.613 203.975 195.613L204.63 181.916" stroke="#3E2802" stroke-width="1.2565" stroke-miterlimit="10" stroke-linecap="round" stroke-linejoin="round"/>
<path d="M196.796 179.312C196.796 179.312 196.096 180.561 195.717 182.444" stroke="#3E2802" stroke-width="1.2565" stroke-miterlimit="10" stroke-linecap="round" stroke-linejoin="round"/>
<path d="M208.483 220.983C208.826 222.791 209.175 224.569 209.51 226.265" stroke="#3E2802" stroke-width="1.2565" stroke-miterlimit="10" stroke-linecap="round" stroke-linejoin="round"/>
<path d="M203.968 195.613C203.968 195.613 205.642 205.664 207.584 216.199" stroke="#3E2802" stroke-width="1.2565" stroke-miterlimit="10" stroke-linecap="round" stroke-linejoin="round"/>
<path d="M172.593 100.068L172.459 107.88C172.459 107.88 169.766 110.038 169.23 115.692C168.695 121.347 174.081 126.599 180.137 126.599C186.201 126.599 191.453 121.882 192.391 117.575C193.336 113.267 192.123 107.069 192.123 107.069L191.721 97.643C191.721 97.643 185.792 101.415 180.137 100.336C174.483 99.2575 172.861 97.2412 172.861 97.2412L172.593 100.068Z" fill="#F4E6CB" stroke="#3E2802" stroke-width="1.2565" stroke-miterlimit="10" stroke-linecap="round" stroke-linejoin="round"/>
<path d="M168.374 79.6826C168.374 79.6826 168.009 84.154 168.977 85.2403C169.944 86.3265 171.276 87.1747 171.514 86.2075C171.752 85.2403 171.878 80.1662 172.116 79.0725C172.362 77.9863 168.493 76.6619 168.374 79.6826Z" fill="#F4E6CB" stroke="#3E2802" stroke-width="1.2565" stroke-miterlimit="10" stroke-linecap="round" stroke-linejoin="round"/>
<path d="M170.74 79.6154C170.74 79.6154 169.624 88.5657 169.624 92.8586C169.624 97.144 167.943 98.8255 173.352 101.623C178.76 104.42 183.418 104.792 187.153 103.49C190.88 102.188 192.934 99.0115 193.12 96.4075C193.306 93.796 193.306 89.6966 193.306 89.6966C193.306 89.6966 198.528 85.0317 197.405 81.4903C196.289 77.9488 193.864 82.4203 193.864 82.4203C193.864 82.4203 195.545 77.7554 195.359 72.9119C195.173 68.0611 191.446 67.5031 189.95 67.5031C188.455 67.5031 179.318 64.7056 175.033 67.5031C170.74 70.2931 170.74 79.6154 170.74 79.6154Z" fill="#F4E6CB" stroke="#3E2802" stroke-width="1.2565" stroke-miterlimit="10" stroke-linecap="round" stroke-linejoin="round"/>
<path d="M193.864 82.4129C193.864 82.4129 195.545 77.748 195.359 72.9046C195.173 68.0537 191.446 67.4957 189.95 67.4957C189.928 67.4957 189.876 67.4883 189.846 67.4883C189.058 68.8126 188.083 70.8512 188.083 70.8512L188.827 71.2232C188.827 71.2232 188.083 75.3226 189.571 75.888C191.066 76.446 190.315 77.7555 190.315 79.9875C190.315 82.2269 191.617 83.9009 192.368 83.9009C192.956 83.9009 193.886 82.4055 194.258 81.7656C194.013 82.1302 193.864 82.4129 193.864 82.4129Z" fill="#0B2A70" stroke="#3E2802" stroke-width="1.2565" stroke-miterlimit="10" stroke-linecap="round" stroke-linejoin="round"/>
<path d="M179.133 82.9487C179.133 82.9487 177.563 84.3995 178.284 85.4858C179.006 86.572 181.67 87.1747 182.391 85.8503C183.113 84.5186 182.272 83.3133 181.908 83.0678" stroke="#3E2802" stroke-width="1.2565" stroke-miterlimit="10" stroke-linecap="round" stroke-linejoin="round"/>
<path d="M176.943 81.4978C176.943 81.8054 176.88 82.0589 176.802 82.217C176.794 82.2312 176.788 82.2439 176.781 82.2552C176.775 82.2439 176.768 82.2312 176.761 82.217C176.682 82.0589 176.619 81.8054 176.619 81.4978C176.619 81.1901 176.682 80.9366 176.761 80.7786C176.768 80.7644 176.775 80.7517 176.781 80.7403C176.788 80.7517 176.794 80.7644 176.802 80.7786C176.88 80.9366 176.943 81.1901 176.943 81.4978ZM176.713 82.3448C176.713 82.3445 176.715 82.3431 176.718 82.3413C176.715 82.3441 176.713 82.345 176.713 82.3448ZM176.844 82.3413C176.848 82.3431 176.849 82.3445 176.849 82.3448C176.849 82.345 176.848 82.3441 176.844 82.3413ZM176.849 80.6508C176.849 80.651 176.848 80.6524 176.844 80.6543C176.848 80.6515 176.849 80.6506 176.849 80.6508ZM176.718 80.6543C176.715 80.6524 176.713 80.651 176.713 80.6508C176.713 80.6506 176.715 80.6515 176.718 80.6543Z" fill="#0B2A70" stroke="#3E2802"/>
<path d="M184.979 81.8547C184.979 82.1624 184.915 82.4158 184.837 82.5739C184.83 82.5881 184.823 82.6008 184.816 82.6122C184.81 82.6008 184.803 82.5881 184.796 82.5739C184.718 82.4158 184.654 82.1624 184.654 81.8547C184.654 81.547 184.718 81.2936 184.796 81.1355C184.803 81.1225 184.809 81.1107 184.815 81.1C184.822 81.1121 184.829 81.1258 184.837 81.1411C184.916 81.2998 184.979 81.5517 184.979 81.8547ZM184.748 82.7017C184.748 82.7015 184.75 82.7001 184.754 82.6982C184.75 82.701 184.748 82.7019 184.748 82.7017ZM184.879 82.6982C184.883 82.7001 184.885 82.7015 184.885 82.7017C184.884 82.7019 184.883 82.701 184.879 82.6982ZM184.749 81.0116C184.746 81.0102 184.745 81.0092 184.745 81.0091C184.745 81.0089 184.746 81.0096 184.749 81.0116ZM184.885 81.0077C184.885 81.008 184.883 81.0093 184.879 81.0112C184.883 81.0084 184.884 81.0075 184.885 81.0077Z" fill="#0B2A70" stroke="#3E2802"/>
<path d="M183.484 78.2314C183.484 78.2314 186.021 76.5425 188.439 79.1986" stroke="#3E2802" stroke-width="1.2565" stroke-miterlimit="10" stroke-linecap="round" stroke-linejoin="round"/>
<path d="M179.631 90.128C179.631 90.128 178.575 89.5551 177.563 90.0387C176.551 90.5149 176.358 91.3333 176.358 91.3333C176.358 91.3333 174.81 92.5832 176.439 93.1263C178.069 93.6694 181.625 93.6323 182.54 93.5876C183.455 93.543 183.76 92.6055 183.731 92.0475C183.708 91.4895 183.351 91.3258 183.351 91.3258C183.351 91.3258 182.109 89.1459 179.631 90.128Z" fill="#031947" stroke="#3E2802" stroke-width="0.9227" stroke-miterlimit="10" stroke-linecap="round" stroke-linejoin="round"/>
<path d="M176.008 91.8022C176.008 91.8022 179.333 91.1028 183.515 92.2486" stroke="#3E2802" stroke-width="1.0733" stroke-miterlimit="10" stroke-linecap="round" stroke-linejoin="round"/>
<path d="M167.571 69.3559L187.526 72.1533C187.526 72.1533 195.918 69.9139 196.662 68.2399C197.406 66.5584 194.608 58.1735 193.12 56.1201C191.625 54.0667 177.273 57.6155 172.794 58.3595C168.315 59.1035 164.96 60.227 165.146 62.459C165.332 64.6984 167.571 69.3559 167.571 69.3559Z" fill="#BFAB86" stroke="#3E2802" stroke-width="1.2565" stroke-miterlimit="10" stroke-linecap="round" stroke-linejoin="round"/>
<path d="M167.571 69.356C167.571 69.356 156.195 78.6783 156.009 79.6157C155.823 80.5457 172.608 80.9177 177.823 79.8017C183.046 78.6857 187.518 72.1534 187.518 72.1534L167.571 69.356Z" fill="white" stroke="#3E2802" stroke-width="1.2565" stroke-miterlimit="10" stroke-linecap="round" stroke-linejoin="round"/>
<path d="M155.138 192.964L186.423 174.639C188.35 176.083 191.029 176.321 193.238 175.026C195.731 173.568 196.809 170.629 196.028 167.98L189.503 171.805L187.993 169.23L194.518 165.406C192.584 163.427 189.496 162.936 187.004 164.394C184.794 165.689 183.693 168.137 184.013 170.525L152.727 188.85C150.801 187.406 148.122 187.168 145.912 188.463C143.42 189.921 142.341 192.86 143.122 195.508L149.476 191.788L150.987 194.363L144.633 198.083C146.567 200.062 149.655 200.553 152.147 199.095C154.349 197.8 155.458 195.352 155.138 192.964Z" fill="#BFAB86" stroke="#3E2802" stroke-width="1.2565" stroke-miterlimit="10" stroke-linecap="round" stroke-linejoin="round"/>
<path d="M181.751 179.341C181.751 179.341 185.597 182.087 185.597 184.653C185.597 187.22 181.014 189.966 177.897 190.152C174.78 190.338 174.229 186.856 174.78 185.018C175.338 183.188 181.751 179.341 181.751 179.341Z" fill="#F4E6CB" stroke="#3E2802" stroke-width="1.2565" stroke-miterlimit="10" stroke-linecap="round" stroke-linejoin="round"/>
<path d="M141.434 156.434C141.434 156.434 162.69 168.345 165.621 167.98C168.553 167.616 172.585 165.049 174.787 165.778C176.99 166.515 183.031 175.859 183.582 177.504C184.132 179.155 179.185 185.018 178.083 185.933C176.982 186.848 173.5 190.516 172.771 190.881C172.035 191.245 167.273 195.464 164.892 195.464C162.512 195.464 158.479 193.634 158.114 192.718C157.75 191.803 158.665 190.516 158.665 190.516L147.483 185.383C147.483 185.383 126.227 173.836 122.559 167.973C118.891 162.11 128.057 151.665 128.057 151.665" fill="#F4E6CB"/>
<path d="M141.434 156.434C141.434 156.434 162.69 168.345 165.621 167.98C168.553 167.616 172.585 165.049 174.787 165.778C176.99 166.515 183.031 175.859 183.582 177.504C184.132 179.155 179.185 185.018 178.083 185.933C176.982 186.848 173.5 190.516 172.771 190.881C172.035 191.245 167.273 195.464 164.892 195.464C162.512 195.464 158.479 193.634 158.114 192.718C157.75 191.803 158.665 190.516 158.665 190.516L147.483 185.383C147.483 185.383 126.227 173.836 122.559 167.973C118.891 162.11 128.057 151.665 128.057 151.665" stroke="#3E2802" stroke-width="1.2565" stroke-miterlimit="10" stroke-linecap="round" stroke-linejoin="round"/>
<path d="M165.993 185.204C165.993 185.204 168.195 185.39 168.56 187.771C168.925 190.152 168.009 194.37 168.009 194.37" stroke="#3E2802" stroke-width="1.2565" stroke-miterlimit="10" stroke-linecap="round" stroke-linejoin="round"/>
<path d="M170.204 181.722C170.204 181.722 172.771 181.908 172.771 184.289C172.771 186.67 172.771 190.888 172.771 190.888" stroke="#3E2802" stroke-width="1.2565" stroke-miterlimit="10" stroke-linecap="round" stroke-linejoin="round"/>
<path d="M172.957 175.13C172.957 175.13 177.719 178.612 178.091 180.629C178.455 182.645 178.091 185.941 178.091 185.941" stroke="#3E2802" stroke-width="1.2565" stroke-miterlimit="10" stroke-linecap="round" stroke-linejoin="round"/>
<path d="M194.198 162.564C195.262 162.564 198.104 155.466 198.104 152.803C198.104 150.139 199.347 130.617 202.189 121.57C204.227 115.074 205.983 110.06 206.817 107.731C204.652 107.173 202.338 106.682 199.957 106.273C198.536 110.581 194.198 124.025 192.428 132.573C190.3 142.863 190.828 155.109 191.007 156.173C191.185 157.244 193.134 162.564 194.198 162.564Z" fill="white" stroke="#3E2802" stroke-width="1.2565" stroke-miterlimit="10" stroke-linecap="round" stroke-linejoin="round"/>
<path d="M197.256 148.212L191.148 147.401C190.649 147.334 190.3 146.873 190.359 146.374L191.006 141.501C191.073 141.003 191.535 140.653 192.033 140.713L198.141 141.524C198.64 141.591 198.99 142.052 198.93 142.55L198.283 147.424C198.216 147.929 197.754 148.279 197.256 148.212Z" fill="white" stroke="#3E2802" stroke-width="1.2565" stroke-miterlimit="10" stroke-linecap="round" stroke-linejoin="round"/>
<path d="M195.947 146.769L192.792 146.352C192.294 146.285 191.944 145.824 192.004 145.325L192.324 142.945C192.391 142.446 192.852 142.096 193.35 142.156L196.505 142.573C197.003 142.64 197.353 143.101 197.293 143.599L196.981 145.98C196.907 146.486 196.445 146.836 195.947 146.769Z" fill="white" stroke="#3E2802" stroke-width="1.2565" stroke-miterlimit="10" stroke-linecap="round" stroke-linejoin="round"/>
<path d="M154.446 159.901C155.51 159.901 158.352 152.803 158.352 150.139C158.352 147.476 159.595 127.953 162.437 118.906C164.237 113.155 165.465 109.495 166.127 107.575C163.359 108.2 160.725 108.773 159.84 108.885C159.193 108.966 158.263 110.626 157.258 113.222C156.083 116.86 154.64 121.607 153.509 126.227C152.638 130.156 151.939 134.21 151.619 137.774C151.344 140.78 151.373 144.931 151.567 149.47C151.582 149.604 151.597 149.715 151.611 149.782C151.79 150.854 153.382 159.901 154.446 159.901Z" fill="white" stroke="#3E2802" stroke-width="1.2565" stroke-miterlimit="10" stroke-linecap="round" stroke-linejoin="round"/>
<path d="M157.772 142.64L151.649 141.985C151.15 141.933 150.786 141.479 150.838 140.981L151.359 136.093C151.411 135.594 151.865 135.23 152.363 135.282L158.486 135.937C158.985 135.989 159.349 136.442 159.297 136.941L158.776 141.829C158.724 142.335 158.278 142.692 157.772 142.64Z" fill="white" stroke="#3E2802" stroke-width="1.2565" stroke-miterlimit="10" stroke-linecap="round" stroke-linejoin="round"/>
<path d="M156.433 141.234L153.271 140.899C152.773 140.847 152.408 140.393 152.46 139.895L152.713 137.506C152.765 137.008 153.219 136.643 153.717 136.695L156.879 137.03C157.378 137.082 157.742 137.536 157.69 138.035L157.437 140.423C157.378 140.921 156.931 141.286 156.433 141.234Z" fill="white" stroke="#3E2802" stroke-width="1.2565" stroke-miterlimit="10" stroke-linecap="round" stroke-linejoin="round"/>
</svg>
