<svg width="414" height="185" viewBox="0 0 414 185" fill="none" xmlns="http://www.w3.org/2000/svg">
<path opacity="0.42" d="M59.0265 184.658C79.7399 184.658 96.5315 181.199 96.5315 176.932C96.5315 172.665 79.7399 169.206 59.0265 169.206C38.313 169.206 21.5215 172.665 21.5215 176.932C21.5215 181.199 38.313 184.658 59.0265 184.658Z" fill="#BED2FF"/>
<path opacity="0.42" d="M406.17 172.962C406.17 177.229 389.378 180.688 368.665 180.688C347.951 180.688 331.159 177.229 331.159 172.962C331.159 168.695 347.951 165.236 368.665 165.236C389.378 165.236 406.17 168.695 406.17 172.962Z" fill="#BED2FF"/>
<path d="M121.859 139.349V130.957L158.882 72.3789H164.97V85.378H160.857L132.884 129.641V130.299H182.741V139.349H121.859ZM161.515 156.627V72.3789H171.223V156.627H161.515Z" fill="#031947"/>
<path d="M225.637 157.778C219.439 157.778 214.159 156.092 209.799 152.719C205.439 149.318 202.106 144.395 199.803 137.951C197.499 131.478 196.347 123.662 196.347 114.503C196.347 105.398 197.499 97.623 199.803 91.1783C202.134 84.7061 205.48 79.7697 209.84 76.3691C214.228 72.9411 219.494 71.2271 225.637 71.2271C231.78 71.2271 237.031 72.9411 241.392 76.3691C245.78 79.7697 249.126 84.7061 251.429 91.1783C253.76 97.623 254.926 105.398 254.926 114.503C254.926 123.662 253.774 131.478 251.47 137.951C249.167 144.395 245.835 149.318 241.474 152.719C237.114 156.092 231.834 157.778 225.637 157.778ZM225.637 148.728C231.78 148.728 236.551 145.766 239.952 139.843C243.353 133.919 245.053 125.472 245.053 114.503C245.053 107.208 244.271 100.996 242.708 95.8678C241.172 90.7395 238.951 86.8315 236.044 84.1439C233.165 81.4563 229.695 80.1125 225.637 80.1125C219.548 80.1125 214.79 83.1155 211.362 89.1214C207.934 95.1 206.22 103.56 206.22 114.503C206.22 121.798 206.988 127.995 208.524 133.096C210.06 138.197 212.267 142.078 215.147 144.738C218.054 147.398 221.55 148.728 225.637 148.728Z" fill="#031947"/>
<path d="M268.583 139.349V130.957L305.606 72.3789H311.694V85.378H307.581L279.608 129.641V130.299H329.465V139.349H268.583ZM308.239 156.627V72.3789H317.947V156.627H308.239Z" fill="#031947"/>
<path d="M181.183 51.504C179.606 51.504 178.175 51.1382 176.891 50.4065C175.607 49.6587 174.59 48.6263 173.843 47.3093C173.111 45.9762 172.745 44.4723 172.745 42.7976C172.745 41.123 173.111 39.6273 173.843 38.3103C174.59 36.9772 175.607 35.9448 176.891 35.2131C178.175 34.4653 179.606 34.0913 181.183 34.0913C182.777 34.0913 184.215 34.4653 185.5 35.2131C186.784 35.9448 187.792 36.9772 188.524 38.3103C189.255 39.6273 189.621 41.123 189.621 42.7976C189.621 44.4723 189.255 45.9762 188.524 47.3093C187.792 48.6263 186.784 49.6587 185.5 50.4065C184.215 51.1382 182.777 51.504 181.183 51.504ZM181.183 50.0163C182.451 50.0163 183.589 49.7237 184.597 49.1384C185.605 48.5531 186.402 47.7158 186.987 46.6265C187.573 45.5209 187.865 44.2446 187.865 42.7976C187.865 41.3507 187.573 40.0825 186.987 38.9932C186.402 37.9039 185.605 37.0666 184.597 36.4813C183.589 35.896 182.451 35.6033 181.183 35.6033C179.915 35.6033 178.777 35.896 177.769 36.4813C176.761 37.0666 175.964 37.9039 175.379 38.9932C174.794 40.0825 174.501 41.3507 174.501 42.7976C174.501 44.2446 174.794 45.5209 175.379 46.6265C175.964 47.7158 176.761 48.5531 177.769 49.1384C178.777 49.7237 179.915 50.0163 181.183 50.0163Z" fill="#3F3F46"/>
<path d="M200.403 51.504C198.826 51.504 197.395 51.1382 196.11 50.4065C194.826 49.6587 193.81 48.6263 193.062 47.3093C192.33 45.9762 191.965 44.4723 191.965 42.7976C191.965 41.123 192.33 39.6273 193.062 38.3103C193.81 36.9772 194.826 35.9448 196.11 35.2131C197.395 34.4653 198.826 34.0913 200.403 34.0913C201.996 34.0913 203.435 34.4653 204.719 35.2131C206.004 35.9448 207.012 36.9772 207.743 38.3103C208.475 39.6273 208.841 41.123 208.841 42.7976C208.841 44.4723 208.475 45.9762 207.743 47.3093C207.012 48.6263 206.004 49.6587 204.719 50.4065C203.435 51.1382 201.996 51.504 200.403 51.504ZM200.403 50.0163C201.671 50.0163 202.809 49.7237 203.817 49.1384C204.825 48.5531 205.622 47.7158 206.207 46.6265C206.792 45.5209 207.085 44.2446 207.085 42.7976C207.085 41.3507 206.792 40.0825 206.207 38.9932C205.622 37.9039 204.825 37.0666 203.817 36.4813C202.809 35.896 201.671 35.6033 200.403 35.6033C199.134 35.6033 197.996 35.896 196.988 36.4813C195.98 37.0666 195.184 37.9039 194.598 38.9932C194.013 40.0825 193.72 41.3507 193.72 42.7976C193.72 44.2446 194.013 45.5209 194.598 46.6265C195.184 47.7158 195.98 48.5531 196.988 49.1384C197.996 49.7237 199.134 50.0163 200.403 50.0163Z" fill="#3F3F46"/>
<path d="M222.866 39.1883C222.866 40.6515 222.386 41.8303 221.427 42.7245C220.468 43.6187 219.029 44.0658 217.11 44.0658H213.672V51.3333H211.964V34.2864H217.11C219.012 34.2864 220.443 34.7335 221.402 35.6277C222.378 36.5219 222.866 37.7088 222.866 39.1883ZM217.11 42.6025C219.777 42.6025 221.11 41.4645 221.11 39.1883C221.11 38.0502 220.793 37.1885 220.159 36.6032C219.525 36.0179 218.508 35.7253 217.11 35.7253H213.672V42.6025H217.11Z" fill="#3F3F46"/>
<path d="M230.9 51.504C229.778 51.504 228.787 51.3089 227.925 50.9187C227.079 50.5285 226.413 49.9838 225.925 49.2847C225.437 48.5856 225.177 47.8052 225.145 46.9435H226.949C227.031 47.7727 227.396 48.5043 228.047 49.1384C228.697 49.7562 229.648 50.0651 230.9 50.0651C232.055 50.0651 232.965 49.7725 233.632 49.1872C234.314 48.5856 234.656 47.8296 234.656 46.9191C234.656 46.1875 234.469 45.6022 234.095 45.1632C233.721 44.708 233.258 44.3747 232.705 44.1633C232.152 43.9357 231.388 43.6919 230.412 43.4317C229.274 43.1228 228.372 42.822 227.705 42.5294C227.039 42.2367 226.47 41.7815 225.998 41.1637C225.527 40.5459 225.291 39.7086 225.291 38.6518C225.291 37.7738 225.519 36.9934 225.974 36.3106C226.429 35.6115 227.071 35.0668 227.901 34.6766C228.73 34.2864 229.681 34.0913 230.754 34.0913C232.331 34.0913 233.599 34.4815 234.558 35.2619C235.534 36.026 236.095 37.0178 236.241 38.2372H234.388C234.274 37.5381 233.892 36.9203 233.241 36.3837C232.591 35.831 231.713 35.5546 230.608 35.5546C229.583 35.5546 228.73 35.831 228.047 36.3837C227.364 36.9203 227.023 37.66 227.023 38.603C227.023 39.3184 227.21 39.8955 227.583 40.3345C227.957 40.7735 228.421 41.1068 228.974 41.3344C229.543 41.562 230.307 41.8059 231.266 42.066C232.372 42.3749 233.266 42.6838 233.949 42.9927C234.631 43.2854 235.209 43.7406 235.68 44.3584C236.152 44.9763 236.387 45.8054 236.387 46.846C236.387 47.6426 236.176 48.3986 235.753 49.114C235.331 49.8294 234.705 50.4065 233.875 50.8455C233.046 51.2845 232.055 51.504 230.9 51.504Z" fill="#3F3F46"/>
<path d="M246.671 51.4552C246.313 51.4552 246.013 51.3333 245.769 51.0894C245.541 50.8455 245.427 50.5447 245.427 50.1871C245.427 49.8294 245.541 49.5367 245.769 49.3091C246.013 49.0652 246.313 48.9433 246.671 48.9433C247.012 48.9433 247.297 49.0652 247.525 49.3091C247.769 49.5367 247.89 49.8294 247.89 50.1871C247.89 50.5447 247.769 50.8455 247.525 51.0894C247.297 51.3333 247.012 51.4552 246.671 51.4552Z" fill="#3F3F46"/>
<path d="M251.101 51.4552C250.743 51.4552 250.442 51.3333 250.198 51.0894C249.971 50.8455 249.857 50.5447 249.857 50.1871C249.857 49.8294 249.971 49.5367 250.198 49.3091C250.442 49.0652 250.743 48.9433 251.101 48.9433C251.442 48.9433 251.727 49.0652 251.954 49.3091C252.198 49.5367 252.32 49.8294 252.32 50.1871C252.32 50.5447 252.198 50.8455 251.954 51.0894C251.727 51.3333 251.442 51.4552 251.101 51.4552Z" fill="#3F3F46"/>
<path d="M255.531 51.4552C255.173 51.4552 254.872 51.3333 254.628 51.0894C254.401 50.8455 254.287 50.5447 254.287 50.1871C254.287 49.8294 254.401 49.5367 254.628 49.3091C254.872 49.0652 255.173 48.9433 255.531 48.9433C255.872 48.9433 256.157 49.0652 256.384 49.3091C256.628 49.5367 256.75 49.8294 256.75 50.1871C256.75 50.5447 256.628 50.8455 256.384 51.0894C256.157 51.3333 255.872 51.4552 255.531 51.4552Z" fill="#3F3F46"/>
<path d="M4.26575 122.953C4.26575 122.953 1.31075 121.126 0.56175 123.559C-0.18725 125.993 -0.18725 129.549 0.56175 129.83C1.31075 130.111 5.61575 129.83 5.61575 129.83C5.61575 129.83 7.12675 124.405 4.26575 122.953Z" fill="#DC2626"/>
<path d="M77.4326 124.394C77.4326 124.394 70.7886 119.715 69.1816 127.216C69.1816 127.216 70.7376 131.385 71.5296 139.006C74.2996 139.571 77.0266 140.227 79.6926 140.956C79.6916 133.901 79.1396 127.453 77.4326 124.394Z" fill="#BFAB86"/>
<path d="M81.9332 170.514L77.8612 168.718C77.8612 168.718 79.6942 153.828 79.6922 140.956C77.0262 140.227 74.2992 139.571 71.5292 139.006C72.2212 145.665 72.3302 154.958 70.3062 166.418C70.3062 166.418 67.6942 173.431 70.5812 176.349C73.4672 179.266 76.0392 178.256 79.6822 179.715C83.3262 181.174 89.4342 181.51 91.8982 177.359C94.3642 173.206 89.3272 166.137 81.9332 170.514Z" fill="#D1BF9B"/>
<path d="M37.1406 119.663C37.1406 119.663 30.4956 114.75 28.8896 122.626C28.8896 122.626 30.9136 128.33 31.5186 138.611C34.1046 138.022 36.7366 137.573 39.4007 137.26C39.4097 129.773 38.8636 122.905 37.1406 119.663Z" fill="#BFAB86"/>
<path d="M41.6417 168.086L37.5697 166.201C37.5697 166.201 39.3837 150.727 39.4017 137.261C36.7377 137.573 34.1057 138.023 31.5197 138.612C31.9077 145.214 31.7127 153.697 30.0157 163.787C30.0157 163.787 27.4047 171.15 30.2907 174.214C33.1767 177.278 35.7487 176.217 39.3927 177.748C43.0367 179.28 49.1447 179.633 51.6087 175.274C54.0717 170.914 49.0357 163.491 41.6417 168.086Z" fill="#D1BF9B"/>
<path d="M66.538 45.2291C69.346 40.1751 70.469 33.9991 68.223 28.3841C68.057 28.0191 67.872 27.6841 67.673 27.3721C56.351 31.2921 39.572 41.7451 31.249 69.5801C45.407 65.9311 58.289 58.6351 66.538 45.2291Z" fill="#BFAB86"/>
<path d="M83.6592 20.6221C83.6682 21.3011 83.8092 21.9001 83.8092 21.9001C83.8092 21.9001 83.7672 21.4111 83.6592 20.6221Z" fill="#F59E0B"/>
<path d="M88.3634 29.2781C88.3634 29.2781 94.9004 29.8111 94.0964 27.0341C93.2924 24.2571 90.7204 25.0141 90.7204 25.0141C90.7204 25.0141 97.4714 19.6281 93.4524 17.2711C89.4344 14.9151 86.8624 22.2361 86.8624 22.2361C86.8624 22.2361 87.1834 18.8701 85.0944 18.7011C83.8854 18.6031 83.6464 19.6881 83.6584 20.6211C83.7664 21.4101 83.8084 21.8991 83.8084 21.8991C83.8084 21.8991 83.6674 21.3001 83.6584 20.6211C83.1914 17.1971 81.4894 8.13307 76.6554 9.02307C70.7084 10.1171 79.4684 22.9931 79.4684 22.9931C79.4684 22.9931 77.7004 21.5621 77.0574 23.0771C76.4144 24.5921 79.1474 25.0131 79.1474 25.0131C79.1474 25.0131 74.3624 25.0541 67.6714 27.3701C67.8714 27.6821 68.0554 28.0181 68.2214 28.3821C70.4674 33.9971 69.3444 40.1731 66.5364 45.2271C58.2874 58.6331 45.4054 65.9291 31.2464 69.5781C29.7814 74.4771 28.5744 79.9071 27.7094 85.9431C27.7094 85.9431 23.5014 120.298 24.4944 121.963C26.5334 125.378 49.5104 129.606 75.1714 128.659C77.5624 128.571 79.6644 126.973 80.4794 124.618L92.7314 92.8951C96.8094 82.3351 99.1034 71.0951 99.3084 59.7061C99.5294 47.5091 97.4714 34.1031 88.3634 29.2781Z" fill="#D1BF9B"/>
<path d="M45.0875 71.2878C44.0815 69.2938 41.8035 67.6048 36.7835 68.3408C29.6925 69.3808 23.9255 79.1058 20.8545 85.5088C30.2855 82.6048 38.9745 78.0908 45.0875 71.2878Z" fill="#D1BF9B"/>
<path d="M23.3018 91.8336C27.2398 84.9426 35.0608 79.7786 43.7388 79.7436C44.4428 79.1126 45.2048 78.0316 45.7418 76.1566C45.7418 76.1566 46.2188 73.5306 45.0878 71.2876C38.9748 78.0916 30.2848 82.6056 20.8548 85.5086C19.3078 88.7336 18.4428 91.1196 18.4428 91.1196C18.4428 91.1196 14.6038 90.6726 13.7508 95.5856C13.7508 95.5856 13.3238 98.0426 14.8168 98.9356C14.8168 98.9356 0.100778 120.375 3.29978 128.861C3.29978 128.861 2.73078 131.466 5.21878 132.36C5.21878 132.36 6.85378 135.933 9.27078 134.667C9.27078 134.667 7.28078 139.58 9.83978 140.548C12.3998 141.516 15.2428 141.144 16.2378 136.975C16.4908 135.916 17.0068 132.302 17.9548 127.365C15.7048 115.439 16.5608 102.937 23.3018 91.8336Z" fill="#D1BF9B"/>
<path d="M23.3014 91.8336C16.5604 102.937 15.7044 115.439 17.9554 127.364C20.7404 112.87 27.2664 86.9527 41.9024 80.6227C41.9024 80.6227 42.7644 80.6167 43.7384 79.7437C35.0604 79.7787 27.2394 84.9426 23.3014 91.8336Z" fill="#BFAB86"/>
<path d="M30.7285 71.3548C30.7285 71.3548 39.6415 64.4278 45.0885 71.2868C45.0885 71.2868 41.4525 66.5288 30.7285 71.3548Z" fill="#BFAB86"/>
<path d="M76.6553 9.024C76.6553 9.024 82.2593 6.67001 83.7333 21.492C83.7333 21.492 82.8053 18.355 85.0943 18.702C87.3833 19.049 86.8623 22.237 86.8623 22.237C86.8623 22.237 88.4463 15.435 92.9683 17.031C97.4903 18.628 92.1623 23.96 90.7203 25.014C90.7203 25.014 93.8383 24.465 94.1553 27.371C94.1553 27.371 92.4023 24.523 89.9103 25.786C89.9103 25.786 95.5523 18.974 92.4373 18.346C89.3223 17.718 86.7163 23.681 86.7163 23.681C86.7163 23.681 86.2683 19.591 84.9273 20.172C83.5853 20.753 83.8083 23.576 83.8083 23.576C83.8083 23.576 81.1933 9.563 76.6553 9.024Z" fill="#F4E6CB"/>
<path d="M21.8844 128.8C19.1814 125.615 15.2144 125.901 15.2144 125.901C13.6694 130.208 13.9504 133.807 13.9504 133.807C13.9504 133.807 -1.3506 162.444 6.5104 158.233C12.5044 155.022 19.2824 157.279 22.1654 158.532C22.6154 158.728 23.0994 158.596 23.4024 158.276C18.2204 149.032 16.7354 137.996 21.8844 128.8Z" fill="#B91C1C"/>
<path d="M24.3383 136.755C24.2913 132.894 23.2483 130.407 21.8843 128.8C16.7353 137.996 18.2203 149.032 23.4023 158.276C23.5683 158.1 23.6833 157.868 23.7013 157.598C23.9403 154.139 24.4463 145.613 24.3383 136.755Z" fill="#EF4444"/>
<path d="M71.9235 59.2443C71.1495 61.0913 71.0695 62.8272 71.7435 63.1222C72.4185 63.4172 73.5935 62.1603 74.3675 60.3133C75.1415 58.4663 75.2215 56.7293 74.5465 56.4343C73.8725 56.1403 72.6975 57.3973 71.9235 59.2443Z" fill="#18181B"/>
<path d="M87.3493 62.9632C86.7173 64.8632 86.7693 66.6012 87.4643 66.8442C88.1603 67.0882 89.2353 65.7452 89.8683 63.8452C90.5003 61.9452 90.4493 60.2072 89.7533 59.9642C89.0573 59.7202 87.9813 61.0632 87.3493 62.9632Z" fill="#18181B"/>
<path d="M83.9112 51.7318C83.2792 53.6318 83.3302 55.3698 84.0262 55.6128C84.7222 55.8568 85.7972 54.5138 86.4302 52.6138C87.0622 50.7138 87.0112 48.9758 86.3152 48.7318C85.6192 48.4898 84.5432 49.8328 83.9112 51.7318Z" fill="#18181B"/>
<path d="M78.8141 79.0291C77.0481 77.4431 74.7221 76.5911 72.3561 76.7721C72.3191 76.7751 72.2811 76.7781 72.2441 76.7811C68.4991 77.0881 67.3491 71.3931 72.3181 70.2201C77.2881 69.0471 83.0831 71.7371 84.5491 75.7551C85.8331 79.2701 82.2491 82.1161 78.8141 79.0291Z" fill="#18181B"/>
<mask id="mask0_163_7015" style="mask-type:luminance" maskUnits="userSpaceOnUse" x="69" y="69" width="16" height="12">
<path d="M78.8141 79.0291C77.0481 77.4431 74.7221 76.5911 72.3561 76.7721C72.3191 76.7751 72.2811 76.7781 72.2441 76.7811C68.4991 77.0881 67.3491 71.3931 72.3181 70.2201C77.2881 69.0471 83.0831 71.7371 84.5491 75.7551C85.8331 79.2701 82.2491 82.1161 78.8141 79.0291Z" fill="white"/>
</mask>
<g mask="url(#mask0_163_7015)">
<path d="M82.4264 80.483C81.7594 82.193 78.4864 82.511 75.1164 81.195C71.7464 79.879 69.5544 77.427 70.2224 75.718C70.8894 74.009 74.1624 73.69 77.5334 75.006C80.9024 76.322 83.0934 78.774 82.4264 80.483Z" fill="#EF4444"/>
</g>
<path d="M103.067 91.3051C106.982 74.9241 95.9859 68.1641 95.9859 68.1641L94.7989 71.5871L89.5309 86.7861C87.6879 97.6261 81.1639 91.9471 81.1639 91.9471C80.6309 90.2721 79.9909 91.9471 79.9909 91.9471C79.9909 91.9471 79.9909 85.3591 79.9909 81.0601C79.9909 76.7611 78.9249 74.9741 76.8989 76.0911C74.8729 77.2081 75.5129 86.0291 75.5129 86.0291C74.0729 83.8521 72.8999 86.0851 72.8999 86.0851C72.8999 86.0851 72.4739 85.1361 71.4609 85.2481C70.4479 85.3601 70.3949 86.4771 70.3949 86.4771C70.0749 85.9181 68.6889 84.1321 67.4089 86.4771C66.1289 88.8221 69.6479 101.551 75.4169 105.348C76.5599 106.1 78.1759 106.656 80.0599 106.94C89.5619 104.802 98.0889 99.7081 103.067 91.3051Z" fill="#D1BF9B"/>
<path d="M80.0586 106.939C86.0356 107.84 94.7356 105.983 99.7916 98.7702C101.192 96.7732 102.319 94.3752 103.023 91.5012C103.04 91.4342 103.051 91.3712 103.066 91.3042C98.0886 99.7082 89.5616 104.802 80.0586 106.939Z" fill="#D1BF9B"/>
<path d="M90.8937 94.0801C90.8937 94.0801 85.2077 95.9821 79.9907 91.9481C79.9907 91.9481 81.8757 75.7061 77.8567 75.7741C77.8567 75.7741 74.3977 75.0041 75.4747 85.3901C75.4747 85.3901 73.8557 84.3521 72.8987 86.0861C72.8987 86.0861 71.1697 84.0951 70.4157 86.3091C70.4157 86.3091 67.9627 84.0661 67.1447 86.8731C67.1447 86.8731 64.0117 103.329 81.6637 107.156C81.6637 107.156 67.0297 103.614 67.5907 87.2601C67.5907 87.2601 67.7307 86.2781 68.7837 86.2251C69.8367 86.1721 70.4327 87.4011 70.4327 87.4011C70.4327 87.4011 70.7837 85.7861 71.5907 85.9801C72.3977 86.1731 72.9597 87.2961 72.9597 87.2961C72.9597 87.2961 73.2407 85.4711 74.4517 85.7701C75.6617 86.0681 75.6977 87.4721 75.6977 87.4721C75.6977 87.4721 75.0667 75.7861 77.7337 76.2071C80.4007 76.6281 79.5937 92.8421 79.5937 92.8421C79.5937 92.8421 85.6997 97.9401 90.8937 94.0801Z" fill="#BFAB86"/>
<path d="M98.3828 71.2881C98.3828 71.2881 96.2978 83.4121 91.3838 94.0801C91.3838 94.0801 98.2218 83.1691 98.3828 71.2881Z" fill="#BFAB86"/>
<path d="M23.7226 158.027C23.7226 161.549 19.3676 164.406 13.9936 164.406C8.61965 164.406 4.26465 161.549 4.26465 158.027C4.26465 154.504 8.61965 151.648 13.9936 151.648C19.3676 151.649 23.7226 154.504 23.7226 158.027Z" fill="#991B1B"/>
<path d="M12.2588 158.271V171.474L15.2788 158.711C15.3878 158.248 15.1748 157.767 14.7538 157.546C14.3498 157.335 13.7948 157.151 13.1598 157.233C12.6438 157.301 12.2588 157.751 12.2588 158.271Z" fill="#FBBF24"/>
<path d="M14.9257 169.533C14.9257 170.89 13.8257 171.989 12.4687 171.989C11.1127 171.989 10.0117 170.889 10.0117 169.533C10.0117 168.176 11.1117 167.076 12.4687 167.076C13.8267 167.076 14.9257 168.176 14.9257 169.533Z" fill="#FBBF24"/>
<path d="M321.095 54.2488C318.458 52.2768 315.258 50.6978 311.408 50.0438C303.571 48.7128 298.219 51.3578 294.921 54.1328C303.639 54.9508 312.393 55.1048 321.095 54.2488Z" fill="#D1BF9B"/>
<path d="M321.094 54.2493C312.392 55.1063 303.638 54.9523 294.92 54.1343C292.002 56.5903 290.692 59.1493 290.692 59.1493C290.692 59.1493 283.631 64.0263 283.911 66.1633C284.189 68.3003 285.49 67.5573 285.49 67.5573C285.49 69.6473 286.604 69.2293 286.604 69.2293C286.604 69.2293 284.979 77.4503 287.208 77.5433C289.438 77.6363 291.087 70.9123 291.087 70.9123C291.087 70.9123 291 72.5843 293.683 72.0793C296.365 71.5743 296.081 65.4663 296.081 65.4663C298.868 57.5703 307.043 58.5453 307.043 58.5453C314.68 59.2123 320.436 66.1103 324.502 73.6913C326.008 69.3453 326.967 64.8233 327.012 60.3193C325.487 58.2323 323.531 56.0723 321.094 54.2493Z" fill="#D1BF9B"/>
<path d="M331.473 68.6228C331.473 68.6228 330.157 64.6328 327.01 60.3188C326.965 64.8218 326.006 69.3438 324.5 73.6908C329.783 83.5398 332.216 94.5418 332.216 94.5418C333.516 78.5628 331.473 68.6228 331.473 68.6228Z" fill="#BFAB86"/>
<path d="M390.007 67.2319C390.007 67.2319 386.849 75.3519 390.75 85.1989C390.75 85.1989 392.018 85.3599 393.748 86.2159C394.618 80.8649 395.975 75.6069 397.754 70.4459C395.523 69.0789 392.96 67.9789 390.007 67.2319Z" fill="#BFAB86"/>
<path d="M400.884 72.7261C402.925 84.0271 406.225 95.6591 411.711 106.079C412.136 95.5131 410.625 81.0461 400.884 72.7261Z" fill="#D1BF9B"/>
<path d="M400.883 72.7258C399.921 71.9038 398.883 71.1378 397.753 70.4458C395.974 75.6068 394.617 80.8648 393.747 86.2158C398.474 88.5548 406.657 96.0898 401.896 119.756C401.896 119.756 397.041 123.472 397.042 126.398C397.043 129.324 398.645 130.09 398.645 130.09C398.645 130.09 397.39 133.016 399.899 133.016C402.407 133.016 404.498 133.574 405.194 133.922C405.89 134.27 407.702 133.434 408.677 133.922C409.653 134.409 411.951 134.409 412.788 133.643C413.624 132.877 413.066 122.286 410.14 119.081C410.14 119.081 411.409 113.558 411.709 106.078C406.224 95.6588 402.924 84.0268 400.883 72.7258Z" fill="#D1BF9B"/>
<path d="M348.309 165.77C348.309 165.77 347.12 163.802 345.976 165.038C345.976 165.038 337.605 159.595 333.625 168.652C329.645 177.709 347.485 178.121 351.877 173.867C356.269 169.612 357.641 169.475 357.641 169.475C357.641 169.475 359.425 166.593 357.641 165.358C356.321 164.444 352.744 150.968 351.977 136.57C349.504 136.834 347.05 137.189 344.622 137.665L348.309 165.77Z" fill="#D1BF9B"/>
<path d="M352.426 121.581C352.426 121.581 344.329 114.445 342.133 118.699L344.621 137.665C347.05 137.189 349.504 136.834 351.976 136.57C351.708 131.52 351.784 126.356 352.426 121.581Z" fill="#BFAB86"/>
<path d="M379.403 161.619C379.403 161.619 380.593 159.652 381.736 160.888C381.736 160.888 390.107 155.445 394.088 164.502C398.067 173.559 380.227 173.971 375.836 169.717C371.444 165.462 370.071 165.325 370.071 165.325C370.071 165.325 368.287 162.443 370.071 161.208C371.392 160.294 374.968 146.818 375.735 132.419C378.209 132.683 380.662 133.039 383.09 133.514L379.403 161.619Z" fill="#D1BF9B"/>
<path d="M375.286 117.43C375.286 117.43 383.384 110.294 385.579 114.548L383.091 133.514C380.662 133.038 378.209 132.682 375.736 132.419C376.004 127.369 375.928 122.206 375.286 117.43Z" fill="#BFAB86"/>
<path d="M352.946 17.9438C353.056 18.2148 353.162 18.3738 353.162 18.3738C353.162 18.3738 353.088 18.2188 352.946 17.9438Z" fill="#F59E0B"/>
<path d="M385.354 56.7563C387.533 58.0973 389.759 59.2963 392.03 60.3743C390.173 46.4163 385.928 33.1583 377.254 25.3563C375.622 23.8893 373.829 22.6223 371.871 21.5723C367.622 33.4683 374.599 50.3033 385.354 56.7563Z" fill="#BFAB86"/>
<path d="M385.353 56.7561C374.597 50.3021 367.621 33.4681 371.87 21.5721C370.33 20.7451 368.689 20.0491 366.931 19.5161C366.931 19.5161 380.609 6.4331 372.649 0.944102C364.689 -4.5449 359.749 17.0001 359.749 17.0001C359.749 17.0001 357.279 11.5111 354.397 13.7061C352.243 15.3471 352.619 17.1401 352.946 17.9421C353.088 18.2171 353.162 18.3721 353.162 18.3721C353.162 18.3721 353.057 18.2131 352.946 17.9421C351.568 15.2511 343.841 0.939099 337.243 4.9231C329.97 9.3141 347.26 22.3521 347.26 22.3521C347.26 22.3521 342.917 25.4941 338.473 33.5541C331.329 46.5081 323.924 72.1691 333.865 117.921C345.35 120.416 357.496 120.318 369.643 117.619C379.434 115.443 387.077 109.277 392.313 101.286C393.295 90.5751 393.988 75.0851 392.029 60.3741C389.759 59.2961 387.532 58.0971 385.353 56.7561Z" fill="#D1BF9B"/>
<path d="M369.644 117.62C357.497 120.319 345.351 120.417 333.866 117.922C334.195 119.437 334.543 120.974 334.911 122.534C334.911 122.534 342.871 124.181 363.867 122.534C384.864 120.888 390.628 114.986 390.628 114.986C390.628 114.986 391.556 109.562 392.314 101.286C387.077 109.278 379.435 115.444 369.644 117.62Z" fill="#BFAB86"/>
<path d="M358.868 44.4731C358.936 46.1911 359.504 47.5721 360.135 47.5571C360.768 47.5421 361.226 46.1371 361.158 44.4191C361.091 42.7011 360.522 41.3201 359.889 41.3351C359.259 41.3511 358.801 42.7551 358.868 44.4731Z" fill="#18181B"/>
<path d="M349.788 56.415C349.855 58.133 350.424 59.514 351.056 59.499C351.689 59.484 352.147 58.079 352.079 56.361C352.011 54.643 351.443 53.262 350.811 53.277C350.179 53.292 349.721 54.697 349.788 56.415Z" fill="#18181B"/>
<path d="M369.561 53.277C368.929 53.292 368.471 54.697 368.538 56.415C368.605 58.133 369.174 59.514 369.806 59.499C370.439 59.484 370.897 58.079 370.828 56.361C370.761 54.643 370.193 53.262 369.561 53.277Z" fill="#18181B"/>
<path d="M352.426 68.4929C352.426 68.4929 359.759 63.4319 369.684 67.4079C369.684 67.4079 360.278 61.6239 352.426 68.4929Z" fill="#9F8B60"/>
<path d="M350.934 67.1968C350.934 67.1968 353.211 67.3978 353.051 70.3708C353.051 70.3708 352.673 68.3218 350.934 67.1968Z" fill="#9F8B60"/>
<path d="M369.282 69.5778C369.282 69.5778 369.659 67.5288 371.399 66.4038C371.399 66.4038 369.121 66.6038 369.282 69.5778Z" fill="#9F8B60"/>
<path d="M357.751 69.5779C357.751 69.5779 360.966 68.3029 364.582 69.5779C364.582 69.5779 361.126 67.2569 357.751 69.5779Z" fill="#9F8B60"/>
<path d="M337.243 4.92488C337.243 4.92488 344.275 -0.718128 353.162 18.3739C353.162 18.3739 346.065 5.04888 337.243 4.92488Z" fill="#F4E6CB"/>
<path d="M374.17 9.63304C376.024 6.25304 375.489 -0.984962 369.404 0.112038C363.32 1.21004 359.749 17.001 359.749 17.001C357.269 12.478 355.541 12.304 353.676 14.358C351.811 16.413 353.162 18.373 353.162 18.373C353.134 15.794 355.059 15.045 355.059 15.045C358.807 14.716 360.182 21.373 360.182 21.373C360.182 21.373 364.16 3.05204 369.523 1.78604C374.887 0.521042 374.17 9.63304 374.17 9.63304Z" fill="#F4E6CB"/>
</svg>
