<svg width="48" height="48" viewBox="0 0 48 48" fill="none" xmlns="http://www.w3.org/2000/svg">
<path fill-rule="evenodd" clip-rule="evenodd" d="M24.8129 23.5001L29.7277 18.5853C30.0908 18.2222 30.0908 17.6354 29.7277 17.2723C29.3646 16.9092 28.7778 16.9092 28.4148 17.2723L23.5 22.1871L18.5852 17.2723C18.2222 16.9092 17.6354 16.9092 17.2723 17.2723C16.9092 17.6354 16.9092 18.2222 17.2723 18.5853L22.187 23.5001L17.2723 28.415C16.9092 28.778 16.9092 29.3649 17.2723 29.7279C17.4534 29.909 17.6911 30 17.9288 30C18.1665 30 18.4042 29.909 18.5852 29.7279L23.5 24.8132L28.4148 29.7279C28.5958 29.909 28.8335 30 29.0712 30C29.3089 30 29.5466 29.909 29.7277 29.7279C30.0908 29.3649 30.0908 28.778 29.7277 28.415L24.8129 23.5001Z" fill="white"/>
</svg>
