<svg width="56" height="56" viewBox="0 0 56 56" fill="none" xmlns="http://www.w3.org/2000/svg">
<path fill-rule="evenodd" clip-rule="evenodd" d="M27.6938 35.3298C28.2529 35.2209 28.7942 35.5859 28.9031 36.145L28.9057 36.1587C29.0146 36.7177 28.6496 37.2592 28.0905 37.3679C27.5314 37.4768 26.9901 37.1118 26.8813 36.5527L26.8786 36.5389C26.7698 35.98 27.1347 35.4385 27.6938 35.3298Z" fill="#D0B98F"/>
<path fill-rule="evenodd" clip-rule="evenodd" d="M27.6938 27.9333C28.2529 27.8244 28.7942 28.1894 28.9031 28.7484L28.9057 28.7621C29.0146 29.3212 28.6496 29.8627 28.0905 29.9714C27.5314 30.0803 26.9901 29.7153 26.8813 29.1562L26.8786 29.1425C26.7698 28.5835 27.1347 28.042 27.6938 27.9333Z" fill="#D0B98F"/>
<path fill-rule="evenodd" clip-rule="evenodd" d="M27.6938 31.6715C28.2529 31.5628 28.7942 31.9277 28.9031 32.4868L28.9057 32.5005C29.0146 33.0596 28.6496 33.6009 28.0905 33.7098C27.5314 33.8186 26.9901 33.4537 26.8813 32.8946L26.8786 32.8808C26.7698 32.3218 27.1347 31.7803 27.6938 31.6715Z" fill="#D0B98F"/>
<path fill-rule="evenodd" clip-rule="evenodd" d="M32.8812 35.3298C33.4403 35.2209 33.9817 35.5859 34.0905 36.145L34.0933 36.1587C34.202 36.7177 33.8371 37.2592 33.278 37.3679C32.7189 37.4768 32.1775 37.1118 32.0687 36.5527L32.0661 36.5389C31.9572 35.98 32.3223 35.4385 32.8812 35.3298Z" fill="#D0B98F"/>
<path fill-rule="evenodd" clip-rule="evenodd" d="M32.8812 27.9333C33.4403 27.8244 33.9817 28.1894 34.0905 28.7484L34.0933 28.7621C34.202 29.3212 33.8371 29.8627 33.278 29.9714C32.7189 30.0803 32.1775 29.7153 32.0687 29.1562L32.0661 29.1425C31.9572 28.5835 32.3223 28.042 32.8812 27.9333Z" fill="#D0B98F"/>
<path fill-rule="evenodd" clip-rule="evenodd" d="M32.8812 31.6715C33.4403 31.5628 33.9817 31.9277 34.0905 32.4868L34.0933 32.5005C34.202 33.0596 33.8371 33.6009 33.278 33.7098C32.7189 33.8186 32.1775 33.4537 32.0687 32.8946L32.0661 32.8808C31.9572 32.3218 32.3223 31.7803 32.8812 31.6715Z" fill="#D0B98F"/>
<path fill-rule="evenodd" clip-rule="evenodd" d="M15.75 40.375C15.75 39.8055 16.2117 39.3438 16.7812 39.3438H40.2082C40.7777 39.3438 41.2394 39.8055 41.2394 40.375C41.2394 40.9445 40.7777 41.4062 40.2082 41.4062H16.7812C16.2117 41.4062 15.75 40.9445 15.75 40.375Z" fill="#D0B98F"/>
<path fill-rule="evenodd" clip-rule="evenodd" d="M21.6875 26.7205C21.6875 24.6473 23.368 22.9668 25.4412 22.9668H35.5499C37.6233 22.9668 39.3037 24.6473 39.3037 26.7205V40.3719C39.3037 40.9414 38.8419 41.4032 38.2724 41.4032C37.7029 41.4032 37.2412 40.9414 37.2412 40.3719V26.7205C37.2412 25.7863 36.4841 25.0293 35.5499 25.0293H25.4412C24.5071 25.0293 23.75 25.7863 23.75 26.7205V40.3719C23.75 40.9414 23.2883 41.4032 22.7188 41.4032C22.1492 41.4032 21.6875 40.9414 21.6875 40.3719V26.7205Z" fill="#D0B98F"/>
<path fill-rule="evenodd" clip-rule="evenodd" d="M22.5174 18.96C23.0842 18.9048 23.5885 19.3196 23.6437 19.8865L23.645 19.9003C23.7002 20.4671 23.2854 20.9714 22.7185 21.0265C22.1516 21.0817 21.6474 20.6669 21.5922 20.1L21.5909 20.0863C21.5357 19.5194 21.9505 19.0152 22.5174 18.96ZM26.3897 18.96C26.9566 18.9048 27.4608 19.3196 27.5161 19.8865L27.5174 19.9003C27.5726 20.4671 27.1578 20.9714 26.5909 21.0265C26.0241 21.0817 25.5198 20.6669 25.4646 20.1L25.4632 20.0863C25.4081 19.5194 25.8229 19.0152 26.3897 18.96Z" fill="#D0B98F"/>
<path fill-rule="evenodd" clip-rule="evenodd" d="M21.4283 16.6562C20.4908 16.6562 19.7344 17.4126 19.7344 18.3488V40.371C19.7344 40.9405 19.2727 41.4023 18.7031 41.4023C18.1336 41.4023 17.6719 40.9405 17.6719 40.371V18.3488C17.6719 16.2722 19.353 14.5938 21.4283 14.5938H27.7696C29.8449 14.5938 31.5261 16.2722 31.5261 18.3488V23.9972C31.5261 24.5667 31.0644 25.0284 30.4949 25.0284C29.9253 25.0284 29.4636 24.5667 29.4636 23.9972V18.3488C29.4636 17.4126 28.7072 16.6562 27.7696 16.6562H21.4283Z" fill="#D0B98F"/>
</svg>
