<svg width="48" height="48" viewBox="0 0 48 48" fill="none" xmlns="http://www.w3.org/2000/svg">
<path d="M0 12C0 5.37258 5.37258 0 12 0H48V36C48 42.6274 42.6274 48 36 48H12C5.37258 48 0 42.6274 0 36V12Z" fill="#F4E6CB"/>
<path fill-rule="evenodd" clip-rule="evenodd" d="M28.1621 14.25C28.5763 14.25 28.9121 14.5858 28.9121 15V18.2233C28.9121 18.6375 28.5763 18.9733 28.1621 18.9733C27.7479 18.9733 27.4121 18.6375 27.4121 18.2233V15C27.4121 14.5858 27.7479 14.25 28.1621 14.25Z" fill="#BFAB86"/>
<path fill-rule="evenodd" clip-rule="evenodd" d="M20.3369 14.25C20.7511 14.25 21.0869 14.5858 21.0869 15V18.2233C21.0869 18.6375 20.7511 18.9733 20.3369 18.9733C19.9227 18.9733 19.5869 18.6375 19.5869 18.2233V15C19.5869 14.5858 19.9227 14.25 20.3369 14.25Z" fill="#BFAB86"/>
<path fill-rule="evenodd" clip-rule="evenodd" d="M19.7718 15.7372L28.7356 15.7363C30.1905 15.7363 31.4661 16.1416 32.3808 17.0134C33.3012 17.8906 33.7588 19.1472 33.7546 20.6491C33.7546 20.6489 33.7546 20.6494 33.7546 20.6491V28.8289C33.7546 30.331 33.2949 31.5887 32.3745 32.4674C31.4593 33.341 30.184 33.7489 28.728 33.7489L19.7719 33.7498C18.3158 33.7498 17.0393 33.3331 16.1241 32.4461C15.2051 31.5554 14.7451 30.2824 14.7451 28.7619V20.6486C14.7451 19.1458 15.2075 17.8899 16.1293 17.0136C17.0454 16.1429 18.3202 15.7372 19.7718 15.7372C19.7718 15.7372 19.7718 15.7372 19.7718 15.7372ZM28.7357 17.2363L19.7719 17.2372C18.5904 17.2372 17.7268 17.5647 17.1628 18.1008C16.6046 18.6314 16.2451 19.4563 16.2451 20.6486V28.7619C16.2451 29.9791 16.6069 30.8251 17.168 31.369C17.7329 31.9164 18.5948 32.2498 19.7717 32.2498C19.7717 32.2498 19.7717 32.2498 19.7717 32.2498L28.7279 32.2489C29.9127 32.2489 30.7758 31.9198 31.3387 31.3824C31.8964 30.8501 32.2546 30.0228 32.2546 28.8289V20.6477V20.6455C32.2581 19.4527 31.9016 18.6288 31.3459 18.0993C30.7845 17.5641 29.9217 17.2363 28.7357 17.2363Z" fill="#BFAB86"/>
<path fill-rule="evenodd" clip-rule="evenodd" d="M23.5049 23.3838C23.5049 22.9696 23.8407 22.6338 24.2549 22.6338C24.6691 22.6338 25.0056 22.9696 25.0056 23.3838C25.0056 23.798 24.6698 24.1338 24.2556 24.1338C23.8414 24.1338 23.5049 23.798 23.5049 23.3838Z" fill="#BFAB86"/>
<path fill-rule="evenodd" clip-rule="evenodd" d="M23.5049 27.1377C23.5049 26.7235 23.8407 26.3877 24.2549 26.3877C24.6691 26.3877 25.0056 26.7235 25.0056 27.1377C25.0056 27.5519 24.6698 27.8877 24.2556 27.8877C23.8414 27.8877 23.5049 27.5519 23.5049 27.1377Z" fill="#BFAB86"/>
<path fill-rule="evenodd" clip-rule="evenodd" d="M19.1533 23.3838C19.1533 22.9696 19.4891 22.6338 19.9033 22.6338C20.3175 22.6338 20.654 22.9696 20.654 23.3838C20.654 23.798 20.3182 24.1338 19.904 24.1338C19.4898 24.1338 19.1533 23.798 19.1533 23.3838Z" fill="#BFAB86"/>
<path fill-rule="evenodd" clip-rule="evenodd" d="M19.1533 27.1377C19.1533 26.7235 19.4891 26.3877 19.9033 26.3877C20.3175 26.3877 20.654 26.7235 20.654 27.1377C20.654 27.5519 20.3182 27.8877 19.904 27.8877C19.4898 27.8877 19.1533 27.5519 19.1533 27.1377Z" fill="#BFAB86"/>
<path fill-rule="evenodd" clip-rule="evenodd" d="M27.8467 23.3838C27.8467 22.9696 28.1825 22.6338 28.5967 22.6338C29.0109 22.6338 29.3474 22.9696 29.3474 23.3838C29.3474 23.798 29.0116 24.1338 28.5974 24.1338C28.1832 24.1338 27.8467 23.798 27.8467 23.3838Z" fill="#BFAB86"/>
<path fill-rule="evenodd" clip-rule="evenodd" d="M27.8467 27.1377C27.8467 26.7235 28.1825 26.3877 28.5967 26.3877C29.0109 26.3877 29.3474 26.7235 29.3474 27.1377C29.3474 27.5519 29.0116 27.8877 28.5974 27.8877C28.1832 27.8877 27.8467 27.5519 27.8467 27.1377Z" fill="#BFAB86"/>
</svg>
