<svg width="58" height="62" viewBox="0 0 58 62" fill="none" xmlns="http://www.w3.org/2000/svg">
<path fill-rule="evenodd" clip-rule="evenodd" d="M29.1954 8.62506C41.8297 8.62506 52.0704 18.8656 52.0704 31.5001C52.0704 44.1344 41.8297 54.3751 29.1954 54.3751C16.5609 54.3751 6.32031 44.1344 6.32031 31.5001C6.32031 18.8656 16.5609 8.62506 29.1954 8.62506Z" stroke="white" stroke-width="3" stroke-linecap="round" stroke-linejoin="round"/>
<path fill-rule="evenodd" clip-rule="evenodd" d="M29.194 8.62506C33.8976 8.62506 37.7086 18.8656 37.7086 31.5001C37.7086 44.1344 33.8976 54.3751 29.194 54.3751C24.4904 54.3751 20.6797 44.1344 20.6797 31.5001C20.6797 18.8656 24.4904 8.62506 29.194 8.62506Z" stroke="white" stroke-width="3" stroke-linecap="round" stroke-linejoin="round"/>
<path d="M8.89844 20.9361C12.7538 22.1256 16.943 22.9343 21.2509 23.3868C26.4862 23.9358 31.8898 23.9358 37.1497 23.3868C41.4576 22.9343 45.6468 22.1256 49.5022 20.9361" stroke="white" stroke-width="3" stroke-linecap="round" stroke-linejoin="round"/>
<path d="M49.5022 42.0571C45.6468 40.8676 41.4576 40.0588 37.1497 39.6061C31.8898 39.0571 26.4862 39.0571 21.2509 39.6061C16.943 40.0588 12.7538 40.8676 8.89844 42.0571" stroke="white" stroke-width="3" stroke-linecap="round" stroke-linejoin="round"/>
</svg>
