<svg width="41" height="41" viewBox="0 0 41 41" fill="none" xmlns="http://www.w3.org/2000/svg">
<path d="M13.3393 36.7464C12.1172 36.7969 10.8971 36.6032 9.75079 36.1763C8.60443 35.7495 7.55472 35.0983 6.66318 34.2607C5.8637 33.4245 5.24012 32.4362 4.82932 31.3547C4.41851 30.2731 4.22884 29.12 4.27151 27.9638V17.9786C4.26962 16.9275 4.52221 15.8915 5.00772 14.9592C5.49321 14.0268 6.1972 13.2259 7.05951 12.6247L17.5811 5.29257C18.5631 4.61183 19.7295 4.24707 20.9243 4.24707C22.1191 4.24707 23.2856 4.61183 24.2675 5.29257L34.7909 12.6264C35.6524 13.2262 36.3559 14.0254 36.8417 14.9558C37.3274 15.8863 37.5809 16.9205 37.5806 17.9701V27.9553C37.6233 29.1115 37.4336 30.2646 37.0228 31.3461C36.6119 32.4277 35.9884 33.416 35.1889 34.2522C34.2968 35.09 33.2465 35.7413 32.0995 36.1683C30.9527 36.595 29.7321 36.7887 28.5093 36.7378H13.3393V36.7464ZM13.3735 34.1839H28.5025C29.3898 34.2303 30.2774 34.1001 31.114 33.801C31.9507 33.5021 32.7197 33.0398 33.3764 32.4414C33.9346 31.841 34.3674 31.1353 34.6492 30.3656C34.9311 29.5958 35.0565 28.7777 35.0181 27.9587V17.9735C35.0193 17.3361 34.866 16.7079 34.5715 16.1427C34.277 15.5774 33.8499 15.0919 33.3268 14.7277L22.8035 7.3938C22.251 7.01261 21.5957 6.80848 20.9243 6.80848C20.2531 6.80848 19.5976 7.01261 19.0451 7.3938L8.52185 14.7277C7.99875 15.0919 7.57169 15.5774 7.27717 16.1427C6.98264 16.7079 6.8294 17.3361 6.8306 17.9735V27.9587C6.79212 28.7777 6.91753 29.5958 7.19942 30.3656C7.48133 31.1353 7.91409 31.841 8.4723 32.4414C9.82385 33.6263 11.5773 34.2498 13.3735 34.1839Z" fill="#D0B98F"/>
<path d="M20.9519 26.9254C19.8651 26.9245 18.8107 26.5554 17.9606 25.8782L11.0641 20.3124C10.9309 20.2075 10.8198 20.0774 10.7373 19.9293C10.6548 19.7813 10.6025 19.6183 10.5834 19.4499C10.5643 19.2814 10.5787 19.111 10.626 18.9482C10.6733 18.7855 10.7524 18.6337 10.8587 18.5018C10.9651 18.3697 11.0965 18.26 11.2455 18.1792C11.3945 18.0984 11.558 18.048 11.7266 18.0308C11.8952 18.0137 12.0656 18.0301 12.2278 18.0793C12.39 18.1283 12.5409 18.2091 12.6716 18.3171L19.5613 23.8726C19.9582 24.1893 20.451 24.362 20.9587 24.362C21.4666 24.362 21.9593 24.1893 22.3562 23.8726L29.1775 18.3273C29.4416 18.1167 29.7782 18.0188 30.114 18.055C30.4499 18.0914 30.7577 18.2587 30.9708 18.5209C31.1838 18.783 31.2848 19.1186 31.2516 19.4548C31.2185 19.7909 31.0538 20.1004 30.7936 20.3158L23.9603 25.8713C23.1056 26.553 22.0451 26.9245 20.9519 26.9254Z" fill="#D0B98F"/>
</svg>
