<svg width="56" height="56" viewBox="0 0 56 56" fill="none" xmlns="http://www.w3.org/2000/svg">
<path d="M0 16C0 7.16344 7.16344 0 16 0H56V40C56 48.8366 48.8366 56 40 56H16C7.16344 56 0 48.8366 0 40V16Z" fill="#031947"/>
<path d="M39.875 32.255C39.875 36.0572 37.3384 39.1476 33.5752 39.1383H21.4249C17.6615 39.1476 15.125 36.0572 15.125 32.255V23.7558C15.125 19.9577 17.6615 16.8633 21.4249 16.8633H33.5752C37.3384 16.8633 39.875 19.9577 39.875 23.7558V32.255Z" stroke="#D0B98F" stroke-width="1.5" stroke-linecap="round" stroke-linejoin="round"/>
<path d="M39.3593 21.0889L30.4158 28.3612C28.7315 29.6994 26.3445 29.6994 24.6602 28.3612L15.6406 21.0889" stroke="#D0B98F" stroke-width="1.5" stroke-linecap="round" stroke-linejoin="round"/>
<path d="M22.9399 26.9746L15.6328 34.9106M39.3623 34.9117L32.1357 26.9757" stroke="#D0B98F" stroke-width="1.5" stroke-linecap="round" stroke-linejoin="round"/>
</svg>
