<svg width="48" height="48" viewBox="0 0 48 48" fill="none" xmlns="http://www.w3.org/2000/svg">
<path fill-rule="evenodd" clip-rule="evenodd" d="M24.5945 15.3838C24.9728 15.3196 25.3612 15.3474 25.7263 15.4644C27.2068 15.9407 27.6142 17.5154 27.2311 18.7108L27.2296 18.7153C26.9125 19.684 26.1289 20.4081 25.5244 20.8574C25.2096 21.0913 24.9135 21.2726 24.6959 21.3956C24.5866 21.4574 24.4958 21.5053 24.4308 21.5384C24.3983 21.5549 24.3721 21.5679 24.3532 21.5771L24.3303 21.5881L24.3232 21.5915L24.3207 21.5926L24.3197 21.5931C24.3196 21.5932 24.319 21.5934 24.0023 20.9136C23.6848 21.5931 23.6847 21.593 23.6845 21.5929L23.6831 21.5923L23.6807 21.5911L23.6735 21.5877L23.6505 21.5766C23.6314 21.5673 23.605 21.5542 23.5722 21.5375C23.5066 21.504 23.4149 21.4557 23.3045 21.3933C23.0847 21.2691 22.7858 21.0863 22.469 20.8514C21.864 20.4027 21.0733 19.6761 20.7702 18.7081C20.3873 17.5089 20.802 15.9443 22.2752 15.4654L22.2836 15.4626C22.647 15.3492 23.0329 15.3222 23.4102 15.3863C23.6284 15.4231 23.8297 15.5087 24.0006 15.6031C24.1723 15.5075 24.3748 15.4209 24.5945 15.3838ZM24.0023 20.9136L23.6845 21.5929C23.8854 21.6868 24.1187 21.6867 24.3197 21.5931L24.0023 20.9136ZM24.0022 20.0644C24.1747 19.9651 24.3971 19.8263 24.6296 19.6535C25.1598 19.2594 25.633 18.7685 25.8034 18.2508C26.0131 17.593 25.7299 17.0416 25.2683 16.8927C25.1315 16.849 24.9862 16.8388 24.8454 16.8627L24.8437 16.863C24.7952 16.8711 24.6943 16.9238 24.4523 17.1053C24.1868 17.3044 23.8219 17.3054 23.5554 17.1076C23.3114 16.9266 23.2111 16.8739 23.1609 16.8655L23.1592 16.8652C23.0187 16.8413 22.8734 16.8507 22.7349 16.8932C22.27 17.047 21.9902 17.6 22.1995 18.253L22.2013 18.2585C22.3575 18.7592 22.8244 19.2475 23.3626 19.6466C23.5992 19.8221 23.8265 19.9634 24.0022 20.0644Z" fill="#959595"/>
<path d="M30.7871 25.1267C30.5882 25.1267 30.3974 25.0477 30.2568 24.907C30.1161 24.7664 30.0371 24.5756 30.0371 24.3767V17.0647C30.0371 16.8658 30.1161 16.675 30.2568 16.5344C30.3974 16.3937 30.5882 16.3147 30.7871 16.3147C30.986 16.3147 31.1768 16.3937 31.3174 16.5344C31.4581 16.675 31.5371 16.8658 31.5371 17.0647V24.3767C31.5371 24.5756 31.4581 24.7664 31.3174 24.907C31.1768 25.0477 30.986 25.1267 30.7871 25.1267Z" fill="#959595"/>
<path d="M30.7871 32.6487C30.5882 32.6487 30.3974 32.5697 30.2568 32.429C30.1161 32.2884 30.0371 32.0976 30.0371 31.8987V30.3767C30.0371 30.1778 30.1161 29.987 30.2568 29.8464C30.3974 29.7057 30.5882 29.6267 30.7871 29.6267C30.986 29.6267 31.1768 29.7057 31.3174 29.8464C31.4581 29.987 31.5371 30.1778 31.5371 30.3767V31.8987C31.5371 32.0976 31.4581 32.2884 31.3174 32.429C31.1768 32.5697 30.986 32.6487 30.7871 32.6487Z" fill="#959595"/>
<path d="M17.2109 25.1267C17.012 25.1267 16.8213 25.0477 16.6806 24.907C16.5399 24.7664 16.4609 24.5756 16.4609 24.3767V17.0647C16.4609 16.8658 16.5399 16.675 16.6806 16.5344C16.8213 16.3937 17.012 16.3147 17.2109 16.3147C17.4098 16.3147 17.6006 16.3937 17.7412 16.5344C17.8819 16.675 17.9609 16.8658 17.9609 17.0647V24.3767C17.9609 24.5756 17.8819 24.7664 17.7412 24.907C17.6006 25.0477 17.4098 25.1267 17.2109 25.1267Z" fill="#959595"/>
<path d="M17.2109 32.6487C17.012 32.6487 16.8213 32.5697 16.6806 32.429C16.5399 32.2884 16.4609 32.0976 16.4609 31.8987V30.3767C16.4609 30.1778 16.5399 29.987 16.6806 29.8464C16.8213 29.7057 17.012 29.6267 17.2109 29.6267C17.4098 29.6267 17.6006 29.7057 17.7412 29.8464C17.8819 29.987 17.9609 30.1778 17.9609 30.3767V31.8987C17.9609 32.0976 17.8819 32.2884 17.7412 32.429C17.6006 32.5697 17.4098 32.6487 17.2109 32.6487Z" fill="#959595"/>
<path d="M17.2113 20.3826C17.033 20.3827 16.8605 20.3193 16.7248 20.2038C16.5891 20.0882 16.4989 19.9281 16.4705 19.7521C16.4421 19.5762 16.4773 19.3958 16.5698 19.2435C16.6623 19.0911 16.806 18.9766 16.9752 18.9206C18.4182 18.4341 19.8984 18.0662 21.4013 17.8206C21.5002 17.8044 21.6014 17.8083 21.6989 17.8319C21.7963 17.8555 21.8881 17.8984 21.9686 17.9581C22.0492 18.0178 22.117 18.093 22.168 18.1793C22.219 18.2657 22.2522 18.3614 22.2656 18.4608C22.2789 18.5601 22.2723 18.6612 22.2459 18.7579C22.2196 18.8547 22.1741 18.9452 22.1121 19.024C22.0502 19.1029 21.973 19.1686 21.8853 19.2171C21.7975 19.2656 21.701 19.2961 21.6012 19.3066C20.1901 19.5379 18.8002 19.8837 17.4452 20.3406C17.37 20.3671 17.291 20.3813 17.2113 20.3826Z" fill="#959595"/>
<path d="M30.7877 20.383C30.7078 20.3831 30.6284 20.3703 30.5527 20.345C29.1974 19.8881 27.8071 19.5423 26.3957 19.311C26.2959 19.3005 26.1993 19.27 26.1116 19.2215C26.0238 19.1729 25.9467 19.1073 25.8848 19.0284C25.8229 18.9496 25.7773 18.8591 25.751 18.7623C25.7246 18.6656 25.7179 18.5645 25.7313 18.4652C25.7447 18.3658 25.7778 18.2701 25.8289 18.1837C25.8799 18.0974 25.9477 18.0222 26.0283 17.9625C26.1088 17.9028 26.2006 17.8599 26.298 17.8363C26.3955 17.8127 26.4967 17.8088 26.5957 17.825C28.0982 18.0706 29.5781 18.4384 31.0207 18.925C31.1898 18.981 31.3335 19.0954 31.426 19.2477C31.5185 19.3999 31.5537 19.5801 31.5254 19.756C31.4972 19.932 31.4072 20.092 31.2717 20.2077C31.1361 20.3233 30.9638 20.3869 30.7856 20.387L30.7877 20.383Z" fill="#959595"/>
<path d="M30.9097 31.127H17.0877C16.7387 31.1459 16.3886 31.1237 16.0447 31.061C15.6259 30.9596 15.243 30.7448 14.9382 30.4402C14.6334 30.1355 14.4183 29.7528 14.3167 29.334C14.254 28.9898 14.2319 28.6394 14.2508 28.29C14.2168 27.6879 14.2523 27.0839 14.3567 26.49C14.5177 25.8215 14.8601 25.2104 15.3462 24.7241C15.8323 24.2378 16.4433 23.8952 17.1117 23.734C17.7056 23.6289 18.3096 23.593 18.9117 23.627H29.0877C29.6898 23.5928 30.2939 23.6287 30.8877 23.734C31.556 23.8952 32.1668 24.2377 32.6529 24.7238C33.139 25.2099 33.4815 25.8207 33.6427 26.489C33.7481 27.0828 33.784 27.6869 33.7497 28.289C33.769 28.6388 33.7464 28.9896 33.6827 29.334C33.5817 29.7525 33.3671 30.1351 33.0625 30.4394C32.758 30.7438 32.3753 30.9582 31.9567 31.059C31.6117 31.1232 31.2602 31.146 30.9097 31.127ZM18.9097 25.127C18.4268 25.1022 17.9426 25.1236 17.4637 25.191C17.0626 25.2877 16.696 25.4931 16.4042 25.7848C16.1123 26.0764 15.9066 26.443 15.8097 26.844C15.7435 27.323 15.7224 27.8071 15.7468 28.29C15.737 28.5203 15.745 28.751 15.7707 28.98C15.8078 29.131 15.8856 29.2689 15.9956 29.3788C16.1056 29.4886 16.2437 29.5662 16.3947 29.603C16.6234 29.6288 16.8538 29.6368 17.0837 29.627H30.9097C31.14 29.6368 31.3707 29.6287 31.5997 29.603C31.7507 29.5659 31.8886 29.4881 31.9985 29.3781C32.1083 29.2681 32.1859 29.13 32.2227 28.979C32.2484 28.7503 32.2565 28.52 32.2467 28.29C32.2716 27.8074 32.2501 27.3235 32.1827 26.845C32.0861 26.4437 31.8805 26.0769 31.5887 25.7851C31.2968 25.4932 30.93 25.2877 30.5287 25.191C30.0502 25.1237 29.5663 25.1022 29.0837 25.127H18.9097Z" fill="#959595"/>
</svg>
