<svg width="49" height="49" viewBox="0 0 49 49" fill="none" xmlns="http://www.w3.org/2000/svg">
<rect x="0.5" y="0.5" width="48" height="48" rx="24" stroke="#D0B98F"/>
<path fill-rule="evenodd" clip-rule="evenodd" d="M23.8397 21.9912C22.261 21.9912 20.9766 23.2735 20.9766 24.8512C20.9766 26.4289 22.261 27.7112 23.8397 27.7112C25.4185 27.7112 26.7018 26.4289 26.7018 24.8512C26.7018 23.2735 25.4185 21.9912 23.8397 21.9912Z" fill="#D0B98F"/>
<path fill-rule="evenodd" clip-rule="evenodd" d="M29.0636 20.7752C28.4708 20.7752 27.9872 20.2948 27.9872 19.7051C27.9872 19.1133 28.4708 18.6328 29.0636 18.6328C29.6564 18.6328 30.1389 19.1133 30.1389 19.7051C30.1389 20.2948 29.6564 20.7752 29.0636 20.7752ZM23.8428 29.2731C21.405 29.2731 19.4207 27.2909 19.4207 24.8531C19.4207 22.4153 21.405 20.4331 23.8428 20.4331C26.2816 20.4331 28.2648 22.4153 28.2648 24.8531C28.2648 27.2909 26.2816 29.2731 23.8428 29.2731ZM28.3907 14.6299H19.6183C16.3329 14.6299 14.125 16.9408 14.125 20.3811V28.6387C14.125 32.078 16.3329 34.3899 19.6183 34.3899H28.3896C31.676 34.3899 33.885 32.078 33.885 28.6387V20.3811C33.885 16.9408 31.6771 14.6299 28.3907 14.6299Z" fill="#D0B98F"/>
</svg>
