<svg width="49" height="49" viewBox="0 0 49 49" fill="none" xmlns="http://www.w3.org/2000/svg">
<rect x="0.5" y="0.5" width="48" height="48" rx="24" stroke="#D0B98F"/>
<path fill-rule="evenodd" clip-rule="evenodd" d="M29.18 27.9315C29.18 28.3621 28.8306 28.7115 28.4 28.7115C27.9695 28.7115 27.62 28.3621 27.62 27.9315V24.3851C27.62 23.3409 26.7735 22.4923 25.7324 22.4923C24.6914 22.4923 23.8448 23.3409 23.8448 24.3851V27.9315C23.8448 28.3621 23.4954 28.7115 23.0648 28.7115C22.6343 28.7115 22.2848 28.3621 22.2848 27.9315V24.3851C22.2848 22.4809 23.8313 20.9323 25.7324 20.9323C27.6336 20.9323 29.18 22.4809 29.18 24.3851V27.9315ZM19.611 21.9099C19.1804 21.9099 18.7936 21.5188 18.7936 21.0883C18.7936 20.6577 19.1804 20.2667 19.611 20.2667C20.0416 20.2667 20.4264 20.6577 20.4264 21.0883C20.4264 21.5188 20.0416 21.9099 19.611 21.9099ZM20.39 27.9315C20.39 28.3621 20.0405 28.7115 19.61 28.7115C19.1794 28.7115 18.83 28.3621 18.83 27.9315V24.0097C18.83 23.5791 19.1794 23.2297 19.61 23.2297C20.0405 23.2297 20.39 23.5791 20.39 24.0097V27.9315ZM28.3907 14.6299H19.6193C16.3329 14.6299 14.125 16.9418 14.125 20.3811V28.6387C14.125 32.078 16.3329 34.3899 19.6193 34.3899H28.3896C31.676 34.3899 33.885 32.078 33.885 28.6387V20.3811C33.885 16.9418 31.6771 14.6299 28.3907 14.6299Z" fill="#D0B98F"/>
</svg>
