<svg width="48" height="48" viewBox="0 0 48 48" fill="none" xmlns="http://www.w3.org/2000/svg">
<path d="M0 12C0 5.37258 5.37258 0 12 0H48V36C48 42.6274 42.6274 48 36 48H12C5.37258 48 0 42.6274 0 36V12Z" fill="#F4E6CB"/>
<path fill-rule="evenodd" clip-rule="evenodd" d="M24.249 14C28.798 14 32.499 17.729 32.499 22.313C32.499 27.948 26.043 33.5 24.249 33.5C22.455 33.5 15.999 27.948 15.999 22.313C15.999 17.729 19.7 14 24.249 14ZM24.249 15.5C20.527 15.5 17.499 18.557 17.499 22.313C17.499 27.092 23.123 31.748 24.249 31.996C25.375 31.747 30.999 27.091 30.999 22.313C30.999 18.557 27.971 15.5 24.249 15.5ZM24.25 19C26.042 19 27.5 20.458 27.5 22.251C27.5 24.043 26.042 25.5 24.25 25.5C22.458 25.5 21 24.043 21 22.251C21 20.458 22.458 19 24.25 19ZM24.25 20.5C23.285 20.5 22.5 21.285 22.5 22.251C22.5 23.216 23.285 24 24.25 24C25.215 24 26 23.216 26 22.251C26 21.285 25.215 20.5 24.25 20.5Z" fill="#BFAB86"/>
</svg>
