<svg width="48" height="48" viewBox="0 0 48 48" fill="none" xmlns="http://www.w3.org/2000/svg">
<path fill-rule="evenodd" clip-rule="evenodd" d="M32.7505 32.4395C33.1645 32.4395 33.5005 32.7755 33.5005 33.1895C33.5005 33.6035 33.1645 33.9395 32.7505 33.9395H25.4975C25.0835 33.9395 24.7475 33.6035 24.7475 33.1895C24.7475 32.7755 25.0835 32.4395 25.4975 32.4395H32.7505ZM28.1163 15.6536C28.1663 15.6926 29.8393 16.9926 29.8393 16.9926C30.4473 17.3546 30.9223 18.0016 31.1023 18.7676C31.2813 19.5256 31.1513 20.3076 30.7343 20.9686C30.7315 20.9731 30.7287 20.9774 30.7191 20.9904L30.7115 21.0004C30.6439 21.0896 30.3496 21.4616 28.8646 23.3222C28.8508 23.3466 28.8351 23.3695 28.8181 23.3916C28.793 23.4244 28.7658 23.4544 28.7367 23.4818C28.6354 23.6093 28.5284 23.7433 28.4159 23.8842L28.188 24.1697C27.7177 24.7587 27.1599 25.4571 26.4981 26.2855L26.1584 26.7106C24.8807 28.3097 23.2444 30.3572 21.1483 32.9796C20.6893 33.5516 20.0013 33.8846 19.2623 33.8936L15.6233 33.9396H15.6133C15.2663 33.9396 14.9643 33.7016 14.8833 33.3626L14.0643 29.8916C13.8953 29.1726 14.0633 28.4306 14.5243 27.8546L23.9443 16.0726C23.9483 16.0686 23.9513 16.0636 23.9553 16.0596C24.9883 14.8246 26.8563 14.6426 28.1163 15.6536ZM22.894 19.787L15.6953 28.7916C15.5243 29.0056 15.4613 29.2816 15.5243 29.5466L16.2053 32.4316L19.2443 32.3936C19.5333 32.3906 19.8003 32.2616 19.9773 32.0416C20.8888 30.9012 22.0343 29.4679 23.2121 27.994L23.6288 27.4726L24.0462 26.9502C25.1508 25.5679 26.2421 24.2021 27.1551 23.0589L22.894 19.787ZM25.1103 17.0166L23.831 18.615L28.0918 21.8859C28.9119 20.8587 29.4514 20.1821 29.5013 20.1176C29.6653 19.8516 29.7293 19.4756 29.6433 19.1136C29.5553 18.7426 29.3243 18.4276 28.9913 18.2266C28.9203 18.1776 27.2353 16.8696 27.1833 16.8286C26.5493 16.3206 25.6243 16.4086 25.1103 17.0166Z" fill="#978563"/>
</svg>
