<svg width="62" height="62" viewBox="0 0 62 62" fill="none" xmlns="http://www.w3.org/2000/svg">
<path fill-rule="evenodd" clip-rule="evenodd" d="M32.4474 38.3132C24.2675 38.3322 16.4301 41.0332 12.1169 45.9831C11.4252 46.7769 10.2211 46.8598 9.42739 46.1679C8.63365 45.4763 8.5509 44.2723 9.24256 43.4786C14.5319 37.4086 23.6169 34.5212 32.4385 34.5007C41.2647 34.4803 50.4221 37.3278 55.8683 43.4656C56.567 44.253 56.4951 45.458 55.7077 46.1567C54.92 46.8554 53.7153 46.7835 53.0166 45.9961C48.545 40.9567 40.6224 38.2943 32.4474 38.3132Z" fill="white"/>
<path fill-rule="evenodd" clip-rule="evenodd" d="M25.052 10.3516C26.0977 10.2291 27.0445 10.9776 27.167 12.0233L30.5718 41.1115C30.6943 42.1572 29.9458 43.1042 28.9002 43.2265C27.8545 43.349 26.9075 42.6004 26.7852 41.5548L23.3803 12.4665C23.2579 11.4208 24.0064 10.4739 25.052 10.3516Z" fill="white"/>
<path fill-rule="evenodd" clip-rule="evenodd" d="M36.2956 12.7884C36.8024 13.0924 37.1394 13.6143 37.208 14.2013L38.4161 24.5205C38.5155 25.3706 38.0364 26.1827 37.2441 26.5066C35.3348 27.2874 33.7262 27.7987 32.0212 28.0021C30.3135 28.2057 28.6225 28.0872 26.561 27.7548C25.5216 27.587 24.8149 26.6087 24.9825 25.5692C25.1501 24.5299 26.1284 23.8232 27.1679 23.9908C29.0516 24.2945 30.3529 24.3615 31.5696 24.2164C32.4549 24.1108 33.3554 23.8858 34.4574 23.4944L33.6982 17.0102C32.7123 17.3072 31.7691 17.5156 30.7979 17.6308C29.0986 17.8323 27.416 17.7363 25.3816 17.4398C24.3398 17.288 23.6183 16.3203 23.7702 15.2785C23.922 14.2368 24.8896 13.5153 25.9314 13.6671C27.7868 13.9375 29.1054 13.9923 30.3488 13.8448C31.5945 13.6971 32.8674 13.3344 34.6196 12.648C35.1696 12.4325 35.7888 12.4843 36.2956 12.7884Z" fill="white"/>
<path fill-rule="evenodd" clip-rule="evenodd" d="M46.6362 15.314C47.172 15.7854 47.3997 16.5166 47.2261 17.2088L46.0443 21.9221L48.2738 26.1804C48.5226 26.6559 48.5597 27.2143 48.3755 27.7186C48.1914 28.2226 47.8031 28.6259 47.3064 28.829C45.3969 29.6096 43.7885 30.121 42.0836 30.3243C40.3758 30.5281 38.6849 30.4094 36.6233 30.077C35.7818 29.9413 35.1324 29.2634 35.0335 28.4165L33.8254 18.0974C33.7566 17.509 33.9652 16.9219 34.3899 16.509C34.8149 16.096 35.4074 15.904 35.9937 15.9894C37.8489 16.2598 39.1678 16.3146 40.4112 16.1671C41.6568 16.0194 42.9297 15.6567 44.6817 14.9703C45.3463 14.71 46.1004 14.8426 46.6362 15.314ZM37.8896 20.0249L38.6485 26.509C39.8159 26.6376 40.7464 26.6442 41.6319 26.5387C42.3431 26.4538 43.0639 26.2919 43.8909 26.0289L42.3299 23.0471C42.1128 22.6327 42.0559 22.153 42.1697 21.6993L42.6903 19.6231C42.0795 19.7698 41.4753 19.8801 40.8603 19.9531C39.8876 20.0685 38.9205 20.0863 37.8896 20.0249Z" fill="white"/>
<path fill-rule="evenodd" clip-rule="evenodd" d="M19.6328 52.9295C18.58 52.9295 17.7266 52.076 17.7266 51.0233C17.7266 49.6009 18.5656 48.5207 19.4995 47.8777C20.4416 47.2288 21.6387 46.8887 22.8688 46.8887C23.9216 46.8887 24.775 47.7422 24.775 48.795C24.775 49.8477 23.9216 50.7012 22.8688 50.7012C22.3117 50.7012 21.8908 50.8601 21.6617 51.0177C21.597 51.0624 21.5584 51.0972 21.5366 51.1206C21.486 52.1281 20.653 52.9295 19.6328 52.9295Z" fill="white"/>
<path fill-rule="evenodd" clip-rule="evenodd" d="M37.8127 46.5027C37.8127 46.5027 37.8157 46.4958 37.8279 46.4831C37.8198 46.4966 37.8127 46.5027 37.8127 46.5027ZM38.2371 46.2333C38.582 46.0828 39.0843 45.9616 39.696 45.9616C40.3078 45.9616 40.8101 46.0828 41.155 46.2333C40.8101 46.384 40.3078 46.5052 39.696 46.5052C39.0843 46.5052 38.582 46.384 38.2371 46.2333ZM41.5794 46.5027C41.5794 46.5027 41.5726 46.4966 41.5642 46.4831C41.5764 46.4958 41.5794 46.5027 41.5794 46.5027ZM41.5642 45.9837C41.5726 45.9702 41.5794 45.9641 41.5794 45.9641C41.5794 45.9641 41.5764 45.971 41.5642 45.9837ZM37.8279 45.9837C37.8157 45.971 37.8127 45.9641 37.8127 45.9641C37.8127 45.9641 37.8198 45.9702 37.8279 45.9837ZM36.1026 43.0483C37.1162 42.4548 38.3909 42.1491 39.696 42.1491C41.0012 42.1491 42.2761 42.4548 43.2894 43.0483C44.2573 43.6151 45.3218 44.6763 45.3218 46.2333C45.3218 47.7906 44.2573 48.8517 43.2894 49.4185C42.2761 50.012 41.0012 50.3177 39.696 50.3177C38.3909 50.3177 37.1162 50.012 36.1026 49.4185C35.1348 48.8517 34.0703 47.7906 34.0703 46.2333C34.0703 44.6763 35.1348 43.6151 36.1026 43.0483Z" fill="white"/>
<path fill-rule="evenodd" clip-rule="evenodd" d="M32.5625 51.9449C33.6153 51.9449 34.4688 52.7984 34.4688 53.8511V53.8766C34.4688 54.9293 33.6153 55.7828 32.5625 55.7828C31.5095 55.7828 30.6562 54.9293 30.6562 53.8766V53.8511C30.6562 52.7984 31.5095 51.9449 32.5625 51.9449Z" fill="white"/>
<path fill-rule="evenodd" clip-rule="evenodd" d="M15.7109 23.2335C16.7637 23.2335 17.6172 24.0869 17.6172 25.1397V25.1651C17.6172 26.2178 16.7637 27.0713 15.7109 27.0713C14.6581 27.0713 13.8047 26.2178 13.8047 25.1651V25.1397C13.8047 24.0869 14.6581 23.2335 15.7109 23.2335Z" fill="white"/>
<path fill-rule="evenodd" clip-rule="evenodd" d="M49.1953 6.22028C50.2481 6.22028 51.1016 7.07372 51.1016 8.12653V8.15194C51.1016 9.20473 50.2481 10.0582 49.1953 10.0582C48.1426 10.0582 47.2891 9.20473 47.2891 8.15194V8.12653C47.2891 7.07372 48.1426 6.22028 49.1953 6.22028Z" fill="white"/>
</svg>