<svg width="48" height="48" viewBox="0 0 48 48" fill="none" xmlns="http://www.w3.org/2000/svg">
<path fill-rule="evenodd" clip-rule="evenodd" d="M25.3301 30.0254V25.7469C26.4781 25.7591 27.4074 26.7098 27.4074 27.8794C27.4074 29.0558 26.4781 30.0132 25.3301 30.0254ZM20.5915 20.7394C20.5915 19.5439 21.5074 18.5729 22.6634 18.4845V23.0078C21.5087 22.9194 20.5915 21.9416 20.5915 20.7394ZM30.0741 27.8794C30.0741 25.2097 27.9474 23.0391 25.3301 23.0269V18.4682H25.7834C26.6781 18.4682 27.4061 19.2066 27.4061 20.1138V20.2892C27.4061 21.0413 28.0034 21.6492 28.7394 21.6492C29.4754 21.6492 30.0727 21.0413 30.0727 20.2892V20.1138C30.0727 17.7066 28.1487 15.7482 25.7834 15.7482H25.3301V14.565C25.3301 13.8129 24.7327 13.205 23.9967 13.205C23.2607 13.205 22.6634 13.8129 22.6634 14.565V15.7645C20.0368 15.8556 17.9248 18.0438 17.9248 20.7407C17.9261 23.4417 20.0395 25.6367 22.6634 25.7278V30.0282H22.2154C21.3208 30.0282 20.5941 29.2842 20.5941 28.369C20.5941 27.6169 19.9968 27.009 19.2608 27.009C18.5248 27.009 17.9275 27.6169 17.9275 28.369C17.9275 30.783 19.8515 32.7482 22.2154 32.7482H22.6634V33.605C22.6634 34.3557 23.2607 34.965 23.9967 34.965C24.7327 34.965 25.3301 34.3557 25.3301 33.605V32.7454C27.9474 32.7332 30.0741 30.5558 30.0741 27.8794Z" fill="white"/>
</svg>
