<svg width="49" height="49" viewBox="0 0 49 49" fill="none" xmlns="http://www.w3.org/2000/svg">
<path fill-rule="evenodd" clip-rule="evenodd" d="M17.1389 7.65649C15.7771 7.65649 14.584 8.81408 14.584 10.3545C14.584 11.8924 15.7766 13.0504 17.1389 13.0504H22.4693C22.2557 12.4441 21.9728 11.7544 21.6102 11.0722C20.5638 9.10367 19.1212 7.65649 17.1389 7.65649ZM24.4948 14.5817C25.9983 14.291 25.9981 14.2905 25.9981 14.29L25.9973 14.2856L25.9955 14.2771L25.9903 14.251L25.9718 14.1636C25.956 14.0902 25.933 13.9872 25.9017 13.8586C25.8399 13.6019 25.7458 13.2417 25.6143 12.8122C25.3529 11.9587 24.936 10.804 24.3143 9.63471C23.1132 7.37505 20.8778 4.59399 17.1389 4.59399C13.9875 4.59399 11.5215 7.22264 11.5215 10.3545C11.5215 13.4848 13.9879 16.1129 17.1389 16.1129H24.4948C24.952 16.1129 25.385 15.9088 25.6759 15.5563C25.9669 15.2038 26.0849 14.7387 25.9981 14.29L24.4948 14.5817Z" fill="#FBBF24"/>
<path fill-rule="evenodd" clip-rule="evenodd" d="M24.6735 9.63452C25.875 7.37493 28.1108 4.59399 31.8495 4.59399C35.001 4.59399 37.467 7.22264 37.467 10.3545C37.467 13.4848 35.0006 16.1129 31.8495 16.1129H24.4922C24.0351 16.1129 23.602 15.9087 23.3111 15.5562C23.0201 15.2036 22.9019 14.7395 22.9889 14.2908L24.4922 14.5817C22.9889 14.2908 22.9887 14.2913 22.9889 14.2908L22.9893 14.2885L22.9899 14.2854L22.9916 14.2769L22.9969 14.2508L23.0152 14.1633C23.0312 14.09 23.0542 13.9869 23.0853 13.8584C23.1473 13.6017 23.2417 13.2415 23.3731 12.812C23.6345 11.9585 24.0518 10.8038 24.6735 9.63452ZM26.5181 13.0504H31.8495C33.2119 13.0504 34.4045 11.8924 34.4045 10.3545C34.4045 8.81408 33.2113 7.65649 31.8495 7.65649C29.8673 7.65649 28.4242 9.10379 27.3775 11.0724C27.0147 11.7545 26.7317 12.4442 26.5181 13.0504Z" fill="#FBBF24"/>
<path fill-rule="evenodd" clip-rule="evenodd" d="M8.19757 15.78C9.7408 14.0297 11.9511 13.0477 14.5522 13.0477H34.4487C37.049 13.0477 39.2589 14.0299 40.8018 15.7801C42.3267 17.5101 43.0974 19.8701 43.0974 22.4792V34.9701C43.0974 37.582 42.3224 39.9424 40.7959 41.6719C39.2522 43.4207 37.0431 44.4036 34.4487 44.4036H14.5502C11.9498 44.4036 9.74003 43.4216 8.19712 41.671C6.67201 39.9407 5.90137 37.5802 5.90137 34.9701V22.4792C5.90137 19.8701 6.67212 17.51 8.19757 15.78ZM10.4946 17.8054C9.55785 18.8678 8.96387 20.4579 8.96387 22.4792V34.9701C8.96387 36.9928 9.55795 38.5832 10.4946 39.6459C11.4134 40.6884 12.7624 41.3411 14.5502 41.3411H34.4487C36.2284 41.3411 37.5784 40.6892 38.4998 39.6451C39.4386 38.5816 40.0349 36.9907 40.0349 34.9701V22.4792C40.0349 20.4579 39.441 18.8677 38.5045 17.8053C37.5855 16.763 36.2366 16.1102 34.4487 16.1102H14.5522C12.7631 16.1102 11.4136 16.7631 10.4946 17.8054Z" fill="#FBBF24"/>
<path fill-rule="evenodd" clip-rule="evenodd" d="M20.5269 34.2964C19.886 34.2964 19.3129 33.897 19.0907 33.296L18.8844 32.7378C18.2615 31.0518 16.9346 29.7235 15.2527 29.1001L14.6954 28.8937C14.0949 28.6712 13.6963 28.0983 13.6963 27.4578C13.6963 26.8174 14.0949 26.2447 14.6954 26.0221L15.2526 25.8155C16.9345 25.1922 18.2615 23.8639 18.8844 22.1781L19.0907 21.6199C19.3128 21.0186 19.886 20.6193 20.5269 20.6193C21.168 20.6193 21.7411 21.0186 21.9633 21.6199L22.1697 22.1781C22.7926 23.8639 24.1193 25.1922 25.8012 25.8155L26.3586 26.0219C26.9592 26.2445 27.358 26.8174 27.358 27.4578C27.358 28.0983 26.9592 28.6712 26.3586 28.8937L25.8014 29.1001C24.1195 29.7235 22.7926 31.0518 22.1697 32.7378L21.9633 33.296C21.7411 33.897 21.168 34.2964 20.5269 34.2964ZM22.4639 27.4578C21.7254 26.9119 21.0725 26.2583 20.5269 25.5193C19.9816 26.2583 19.3286 26.9119 18.5902 27.4578C19.3286 28.0038 19.9816 28.6573 20.5269 29.3964C21.0725 28.6573 21.7254 28.0038 22.4639 27.4578Z" fill="#FBBF24"/>
<path fill-rule="evenodd" clip-rule="evenodd" d="M31.37 36.8323C30.6958 36.8323 30.1011 36.3913 29.9049 35.7461C29.7028 35.0809 29.1834 34.5615 28.5213 34.3596C27.8767 34.1632 27.4365 33.5687 27.4365 32.8949C27.4365 32.2212 27.8767 31.6266 28.5213 31.4302C29.1834 31.2283 29.7028 30.7089 29.9049 30.0437C30.1011 29.3986 30.6958 28.9578 31.37 28.9578C32.0442 28.9578 32.6391 29.3986 32.8351 30.0437C33.0374 30.7089 33.5568 31.2283 34.2189 31.4302C34.8633 31.6266 35.3037 32.2212 35.3037 32.8949C35.3037 33.5687 34.8633 34.1632 34.2189 34.3596C33.5568 34.5615 33.0374 35.0809 32.8351 35.7461C32.6391 36.3913 32.0442 36.8323 31.37 36.8323Z" fill="#FBBF24"/>
</svg>

