<svg width="48" height="48" viewBox="0 0 48 48" fill="none" xmlns="http://www.w3.org/2000/svg">
<path fill-rule="evenodd" clip-rule="evenodd" d="M17.124 18.6185C17.124 16.2059 19.0797 14.25 21.4915 14.25H27.0073C29.419 14.25 31.3748 16.2058 31.3748 18.6175C31.3748 18.6174 31.3748 18.6175 31.3748 18.6175L31.3758 29.3814C31.3758 31.7941 29.42 33.75 27.0073 33.75H21.4925C19.0808 33.75 17.125 31.7943 17.125 29.3826L17.124 18.6185ZM18.624 18.6185C18.624 18.6185 18.624 18.6185 18.624 18.6185L18.625 29.3824C18.625 30.9657 19.9092 32.25 21.4925 32.25H27.0073C28.5916 32.25 29.8758 30.9658 29.8758 29.3816L29.8748 18.6176C29.8748 17.0343 28.5906 15.75 27.0073 15.75H21.4915C19.9084 15.75 18.6241 17.0341 18.624 18.6185Z" fill="#978563"/>
<path fill-rule="evenodd" clip-rule="evenodd" d="M17.1348 26.8623C17.1348 26.4481 17.4705 26.1123 17.8848 26.1123H30.6171C31.0313 26.1123 31.3671 26.4481 31.3671 26.8623C31.3671 27.2765 31.0313 27.6123 30.6171 27.6123H17.8848C17.4705 27.6123 17.1348 27.2765 17.1348 26.8623Z" fill="#978563"/>
<path fill-rule="evenodd" clip-rule="evenodd" d="M23.25 29.9295C23.25 29.3766 23.6987 28.9297 24.2502 28.9297C24.8018 28.9297 25.2505 29.3766 25.2505 29.9295C25.2505 30.4819 24.8027 30.9297 24.2502 30.9297C23.6978 30.9297 23.25 30.4819 23.25 29.9295Z" fill="#978563"/>
</svg>
