<svg width="56" height="56" viewBox="0 0 56 56" fill="none" xmlns="http://www.w3.org/2000/svg">
<path d="M0 16C0 7.16344 7.16344 0 16 0H56V40C56 48.8366 48.8366 56 40 56H16C7.16344 56 0 48.8366 0 40V16Z" fill="#031947"/>
<path fill-rule="evenodd" clip-rule="evenodd" d="M28.5616 16.6094L29.5077 16.7144C34.6472 17.2852 38.7077 21.3401 39.2841 26.4796L39.3902 27.4257L37.4981 27.6378L37.392 26.6919C36.9149 22.4367 33.553 19.0792 29.2976 18.6066L28.3516 18.5016L28.5616 16.6094Z" fill="#D0B98F"/>
<path fill-rule="evenodd" clip-rule="evenodd" d="M28.6443 21.042L29.5788 21.2235C32.208 21.7342 34.262 23.7902 34.7739 26.4183L34.9559 27.3526L33.0872 27.7166L32.9052 26.7823C32.5414 24.9147 31.0822 23.455 29.2158 23.0924L28.2812 22.9109L28.6443 21.042Z" fill="#D0B98F"/>
<path fill-rule="evenodd" clip-rule="evenodd" d="M19.5368 16.4033L24.521 23.2497L22.3316 27.052C22.4094 27.2816 22.5345 27.6119 22.7209 28.0053C23.101 28.8072 23.7291 29.8563 24.7186 30.8457C25.7667 31.8939 26.8789 32.5811 27.7302 33.0057C28.1536 33.2169 28.5089 33.3613 28.754 33.4517L32.5454 31.2686L39.5742 36.4515L39.1639 37.1842C37.9895 39.2828 36.4903 40.782 34.3918 41.9564L34.1953 42.0664L33.9704 42.0767C27.7782 42.3601 22.4537 38.993 18.8705 34.8254C17.0727 32.7344 15.6832 30.4102 14.8183 28.1732C13.96 25.9529 13.5876 23.7363 13.9325 21.8921L13.9627 21.7304L14.0454 21.5883C15.2319 19.5496 16.7636 18.0299 18.793 16.8396L19.5368 16.4033ZM28.8588 34.4898C28.6071 35.4078 28.6069 35.4078 28.6065 35.4077L28.6044 35.4072L28.6009 35.4062L28.591 35.4034L28.5602 35.3944C28.5349 35.387 28.5002 35.3765 28.457 35.3626C28.3703 35.3351 28.2486 35.2945 28.0975 35.2387C27.7957 35.1276 27.3748 34.956 26.8805 34.7093C25.8939 34.2173 24.5994 33.419 23.3724 32.192C22.1941 31.0136 21.4504 29.7698 21.0005 28.8206C20.7751 28.345 20.6218 27.9399 20.5236 27.6487C20.4745 27.5029 20.439 27.3853 20.415 27.301C20.4031 27.259 20.394 27.2251 20.3875 27.2003L20.3798 27.1699L20.3773 27.1598L20.3764 27.1562L20.376 27.1546C20.376 27.1544 20.3757 27.1534 21.3018 26.9328L20.3757 27.1534L20.2881 26.7855L22.2543 23.3709L19.0293 18.941C17.683 19.8577 16.6335 20.9719 15.7769 22.4004C15.5685 23.7502 15.836 25.5257 16.5941 27.4867C17.3757 29.5084 18.6486 31.6471 20.3141 33.5842C23.611 37.4188 28.3297 40.3408 33.6576 40.1834C35.1018 39.3417 36.1826 38.3272 37.0698 36.9704L32.4171 33.5394L28.9898 35.5128L28.6065 35.4077L28.8588 34.4898Z" fill="#D0B98F"/>
</svg>
