<svg width="48" height="48" viewBox="0 0 48 48" fill="none" xmlns="http://www.w3.org/2000/svg">
<path d="M32.5 23.7259C32.5 24.1056 32.2178 24.4194 31.8518 24.469L31.75 24.4759L18.566 24.4753L23.329 29.2188C23.6225 29.5111 23.6235 29.986 23.3313 30.2795C23.0656 30.5463 22.649 30.5714 22.3549 30.3542L22.2706 30.2818L16.2206 24.2578C16.1819 24.2192 16.1483 24.1775 16.1198 24.1335C16.1117 24.1203 16.1035 24.1067 16.0958 24.0929C16.0886 24.081 16.0822 24.0687 16.0761 24.0563C16.0676 24.0382 16.0593 24.0194 16.0518 24.0003C16.0457 23.9856 16.0406 23.9713 16.036 23.9569C16.0304 23.939 16.0251 23.9199 16.0204 23.9006C16.017 23.887 16.0143 23.874 16.0119 23.861C16.0086 23.8415 16.0057 23.8214 16.0037 23.8011C16.002 23.7856 16.0009 23.7702 16.0003 23.7548C16.0002 23.7455 16 23.7357 16 23.7259L16.0004 23.6968C16.0009 23.6821 16.002 23.6674 16.0034 23.6527L16 23.7259C16 23.6786 16.0044 23.6323 16.0128 23.5874C16.0147 23.5766 16.017 23.5656 16.0196 23.5547C16.0249 23.5321 16.0311 23.5104 16.0382 23.489C16.0416 23.4784 16.0457 23.4671 16.05 23.4559C16.0588 23.4333 16.0683 23.4118 16.0788 23.3909C16.0837 23.381 16.0891 23.3707 16.0948 23.3605C16.1042 23.3438 16.1139 23.328 16.1241 23.3126C16.1313 23.3016 16.1393 23.2903 16.1476 23.2791L16.1541 23.2704C16.1743 23.244 16.1962 23.219 16.2197 23.1956L16.2206 23.1949L22.2706 17.1699C22.5641 16.8776 23.0389 16.8786 23.3312 17.1721C23.5969 17.4389 23.6203 17.8556 23.4018 18.1488L23.329 18.2327L18.568 22.9753L31.75 22.9759C32.1642 22.9759 32.5 23.3117 32.5 23.7259Z" fill="#D0B98F"/>
</svg>
