<svg width="48" height="48" viewBox="0 0 48 48" fill="none" xmlns="http://www.w3.org/2000/svg">
<path d="M24.2498 31.9758C23.8701 31.9758 23.5563 31.6937 23.5067 31.3276L23.4998 31.2258L23.5004 18.0418L18.7569 22.8048C18.4646 23.0983 17.9898 23.0994 17.6962 22.8071C17.4294 22.5414 17.4043 22.1248 17.6215 21.8307L17.6939 21.7464L23.7179 15.6964C23.7565 15.6578 23.7982 15.6241 23.8422 15.5956C23.8554 15.5876 23.869 15.5794 23.8828 15.5716C23.8947 15.5644 23.907 15.558 23.9194 15.5519C23.9376 15.5434 23.9563 15.5351 23.9754 15.5276C23.9901 15.5215 24.0044 15.5164 24.0188 15.5118C24.0367 15.5063 24.0558 15.5009 24.0751 15.4963C24.0887 15.4928 24.1017 15.4901 24.1147 15.4878C24.1342 15.4844 24.1543 15.4816 24.1746 15.4796C24.1901 15.4778 24.2055 15.4768 24.2209 15.4762C24.2302 15.476 24.24 15.4758 24.2498 15.4758L24.2789 15.4762C24.2936 15.4768 24.3083 15.4778 24.323 15.4792L24.2498 15.4758C24.2971 15.4758 24.3434 15.4802 24.3883 15.4886C24.3991 15.4905 24.4101 15.4929 24.421 15.4954C24.4436 15.5008 24.4654 15.5069 24.4867 15.514C24.4973 15.5175 24.5086 15.5215 24.5198 15.5259C24.5424 15.5346 24.5639 15.5442 24.5848 15.5546C24.5947 15.5595 24.605 15.565 24.6152 15.5707C24.6319 15.58 24.6477 15.5897 24.6631 15.5999C24.6741 15.6071 24.6854 15.6151 24.6966 15.6234L24.7053 15.6299C24.7317 15.6501 24.7567 15.672 24.7801 15.6955L24.7808 15.6964L30.8058 21.7464C31.0981 22.0399 31.0971 22.5148 30.8036 22.8071C30.5368 23.0728 30.1201 23.0961 29.827 22.8777L29.743 22.8049L25.0004 18.0438L24.9998 31.2258C24.9998 31.64 24.664 31.9758 24.2498 31.9758Z" fill="#D0B98F"/>
</svg>
