<svg width="48" height="48" viewBox="0 0 48 48" fill="none" xmlns="http://www.w3.org/2000/svg">
<path d="M24.2502 15.4758C24.6299 15.4758 24.9437 15.758 24.9933 16.1241L25.0002 16.2258L24.9996 29.4098L29.7431 24.6468C30.0354 24.3533 30.5103 24.3523 30.8038 24.6446C31.0706 24.9103 31.0957 25.3269 30.8785 25.6209L30.8061 25.7052L24.7821 31.7552C24.7435 31.7939 24.7018 31.8275 24.6578 31.856C24.6446 31.8641 24.631 31.8723 24.6172 31.8801C24.6053 31.8872 24.593 31.8937 24.5806 31.8998C24.5624 31.9082 24.5437 31.9165 24.5246 31.924C24.5099 31.9301 24.4956 31.9352 24.4812 31.9399C24.4633 31.9454 24.4442 31.9508 24.4249 31.9554C24.4113 31.9588 24.3983 31.9615 24.3853 31.9639C24.3658 31.9672 24.3457 31.9701 24.3254 31.9721C24.3099 31.9739 24.2945 31.9749 24.2791 31.9755C24.2698 31.9756 24.26 31.9758 24.2502 31.9758L24.2211 31.9755C24.2064 31.9749 24.1917 31.9739 24.177 31.9724L24.2502 31.9758C24.2029 31.9758 24.1566 31.9714 24.1117 31.9631C24.1009 31.9611 24.0899 31.9588 24.079 31.9562C24.0564 31.9509 24.0346 31.9448 24.0133 31.9377C24.0027 31.9342 23.9914 31.9301 23.9802 31.9258C23.9576 31.917 23.9361 31.9075 23.9152 31.897C23.9053 31.8922 23.895 31.8867 23.8848 31.881C23.8681 31.8716 23.8523 31.862 23.8369 31.8518C23.8259 31.8446 23.8146 31.8366 23.8034 31.8282L23.7947 31.8218C23.7683 31.8015 23.7433 31.7796 23.7199 31.7562L23.7192 31.7553L17.6942 25.7053C17.4019 25.4118 17.4029 24.9369 17.6964 24.6446C17.9632 24.3789 18.3799 24.3555 18.673 24.574L18.757 24.6468L23.4996 29.4078L23.5002 16.2258C23.5002 15.8116 23.836 15.4758 24.2502 15.4758Z" fill="#D0B98F"/>
</svg>
