<svg width="48" height="48" viewBox="0 0 48 48" fill="none" xmlns="http://www.w3.org/2000/svg">
<path d="M16 23.7256C16 23.3459 16.2822 23.0322 16.6482 22.9825L16.75 22.9756L29.934 22.9762L25.171 18.2327C24.8775 17.9405 24.8765 17.4656 25.1687 17.1721C25.4344 16.9052 25.851 16.8801 26.1451 17.0973L26.2294 17.1698L32.2794 23.1938C32.3181 23.2323 32.3517 23.274 32.3802 23.318C32.3883 23.3313 32.3965 23.3448 32.4042 23.3587C32.4114 23.3705 32.4178 23.3828 32.4239 23.3953C32.4324 23.4134 32.4407 23.4321 32.4482 23.4512C32.4543 23.4659 32.4594 23.4802 32.464 23.4947C32.4696 23.5125 32.4749 23.5316 32.4796 23.551C32.483 23.5645 32.4857 23.5775 32.4881 23.5906C32.4914 23.61 32.4943 23.6301 32.4963 23.6504C32.498 23.666 32.4991 23.6813 32.4997 23.6967C32.4998 23.7061 32.5 23.7158 32.5 23.7256L32.4996 23.7547C32.499 23.7694 32.498 23.7841 32.4966 23.7988L32.5 23.7256C32.5 23.773 32.4956 23.8193 32.4872 23.8642C32.4853 23.8749 32.483 23.8859 32.4804 23.8969C32.4751 23.9194 32.4689 23.9412 32.4618 23.9625C32.4584 23.9731 32.4543 23.9844 32.45 23.9956C32.4412 24.0182 32.4317 24.0397 32.4212 24.0607C32.4163 24.0705 32.4109 24.0808 32.4052 24.0911C32.3958 24.1077 32.3861 24.1235 32.3759 24.139C32.3687 24.1499 32.3607 24.1613 32.3524 24.1724L32.3459 24.1811C32.3257 24.2075 32.3038 24.2325 32.2803 24.256L32.2794 24.2567L26.2294 30.2817C25.9359 30.574 25.4611 30.573 25.1688 30.2795C24.9031 30.0127 24.8797 29.5959 25.0982 29.3028L25.171 29.2188L29.932 24.4762L16.75 24.4756C16.3358 24.4756 16 24.1399 16 23.7256Z" fill="#D0B98F"/>
</svg>
