<svg width="48" height="48" viewBox="0 0 48 48" fill="none" xmlns="http://www.w3.org/2000/svg">
<path d="M32.1244 23.0616H32.1236C32.0004 23.0617 31.8786 23.0861 31.7648 23.1333C31.6511 23.1805 31.5478 23.2497 31.4609 23.3368C31.3739 23.4239 31.3049 23.5273 31.2579 23.6411C31.2109 23.7549 31.1867 23.8768 31.1868 24C31.1857 25.3143 30.8242 26.6032 30.1418 27.7265C29.4594 28.8498 28.4822 29.7646 27.3163 30.3714C26.1504 30.9782 24.8405 31.2538 23.529 31.1683C22.2174 31.0827 20.9544 30.6393 19.8772 29.8862C16.6311 27.6132 15.8393 23.1231 18.1123 19.877C20.3853 16.6308 24.8755 15.839 28.1216 18.112C28.6127 18.455 29.059 18.858 29.4502 19.3116H26.8119C26.5632 19.3116 26.3248 19.4104 26.149 19.5862C25.9732 19.762 25.8744 20.0005 25.8744 20.2491C25.8744 20.4978 25.9732 20.7362 26.149 20.9121C26.3248 21.0879 26.5632 21.1866 26.8119 21.1866H31.1869C31.4355 21.1866 31.674 21.0879 31.8498 20.9121C32.0256 20.7362 32.1244 20.4978 32.1244 20.2491V15.8741C32.1244 15.6255 32.0256 15.387 31.8498 15.2112C31.674 15.0354 31.4355 14.9366 31.1869 14.9366C30.9382 14.9366 30.6998 15.0354 30.524 15.2112C30.3482 15.387 30.2494 15.6255 30.2494 15.8741V17.4354C29.9204 17.1232 29.5686 16.836 29.197 16.576C28.2222 15.8934 27.1225 15.4095 25.9607 15.152C24.7989 14.8944 23.5977 14.8682 22.4258 15.0749C21.2538 15.2815 20.1341 15.717 19.1304 16.3564C18.1268 16.9958 17.2589 17.8266 16.5763 18.8014C15.1978 20.7701 14.6579 23.2058 15.0752 25.5727C15.4926 27.9395 16.833 30.0436 18.8018 31.4221C20.3175 32.4898 22.1261 33.063 23.9802 33.0633C24.5142 33.0631 25.0471 33.0162 25.573 32.9233C27.6712 32.5531 29.5719 31.4556 30.9414 29.8235C32.311 28.1914 33.0617 26.1289 33.0619 23.9983C33.0617 23.7498 32.9628 23.5116 32.787 23.336C32.6112 23.1603 32.3729 23.0617 32.1244 23.0616Z" fill="#031947"/>
</svg>
