<svg width="49" height="49" viewBox="0 0 49 49" fill="none" xmlns="http://www.w3.org/2000/svg">
<rect x="0.5" y="0.5" width="48" height="48" rx="24" stroke="#D0B98F"/>
<path fill-rule="evenodd" clip-rule="evenodd" d="M24.5721 29.4706L22.1759 31.6972C21.8826 31.9707 21.4053 31.7461 21.4323 31.3457C21.5072 30.2142 21.6237 28.4951 21.7017 27.5393C21.7142 27.3885 21.841 27.22 21.9617 27.1108C24.7603 24.5732 27.5652 22.0419 30.3691 19.5084C30.4731 19.4148 30.5958 19.1839 30.5313 19.0623C30.4585 18.925 30.1226 18.9666 29.9832 19.0539C26.4223 21.2962 22.8613 23.5374 19.3055 25.7869C19.0871 25.9242 18.8198 25.9575 18.5744 25.8784C17.108 25.4073 15.6333 24.9611 14.1638 24.4973C13.8258 24.3902 13.4243 24.2841 13.3858 23.865C13.3453 23.4271 13.7207 23.2191 14.0598 23.0829C15.4263 22.5317 16.8022 22.0044 18.1761 21.474C23.1182 19.5698 28.0603 17.6666 33.0023 15.7634C33.1677 15.6999 33.3882 15.6604 33.5608 15.6261C34.0787 15.5221 34.5447 15.7821 34.5956 16.3063C34.6341 16.69 34.5665 17.1175 34.4864 17.4971C33.4568 22.3944 32.4137 27.2897 31.3716 32.186C31.0908 33.5089 30.4107 33.7595 29.3155 32.9515C27.9043 31.9094 24.5721 29.4706 24.5721 29.4706Z" fill="#D0B98F"/>
</svg>
