<svg width="48" height="48" viewBox="0 0 48 48" fill="none" xmlns="http://www.w3.org/2000/svg">
<path d="M29.2054 18.2871H18.7956C16.4565 18.2871 15 19.9382 15 22.2753V28.5821C15 30.9192 16.4565 32.5704 18.7965 32.5704H29.2054C31.5444 32.5704 33 30.9192 33 28.5821V22.2753C33 19.9382 31.5376 18.2871 29.2054 18.2871Z" stroke="white" stroke-width="1.5" stroke-linecap="round" stroke-linejoin="round"/>
<path d="M27.36 18.2603V17.649C27.36 16.4231 26.3666 15.4297 25.1406 15.4297H22.86C21.634 15.4297 20.6406 16.4231 20.6406 17.649V18.2603" stroke="white" stroke-width="1.5" stroke-linecap="round" stroke-linejoin="round"/>
<path fill-rule="evenodd" clip-rule="evenodd" d="M22.3801 28.2524H18.9017C18.5145 28.2524 18.2012 27.9391 18.2012 27.5519V25.8949C18.2012 25.5086 18.5145 25.1943 18.9017 25.1943H22.3801C22.7673 25.1943 23.0806 25.5086 23.0806 25.8949V27.5519C23.0806 27.9391 22.7673 28.2524 22.3801 28.2524Z" stroke="white" stroke-width="1.5" stroke-linecap="round" stroke-linejoin="round"/>
<path d="M28.2881 32.5506V18.3213" stroke="white" stroke-width="1.5" stroke-linecap="round" stroke-linejoin="round"/>
<path d="M19.7109 18.3213V25.1965M19.7109 32.5465V28.2537" stroke="white" stroke-width="1.5" stroke-linecap="round" stroke-linejoin="round"/>
</svg>
