<svg width="48" height="48" viewBox="0 0 48 48" fill="none" xmlns="http://www.w3.org/2000/svg">
<path d="M24.0929 25.385C26.6845 25.385 28.7854 23.2841 28.7854 20.6925C28.7854 18.1009 26.6845 16 24.0929 16C21.5013 16 19.4004 18.1009 19.4004 20.6925C19.4004 23.2841 21.5013 25.385 24.0929 25.385Z" stroke="#978563" stroke-width="1.5" stroke-linecap="round" stroke-linejoin="round"/>
<path d="M26.2883 25.668H22.0124C19.5873 25.668 17.6213 27.6339 17.6213 30.0591C17.6213 30.1462 17.6205 30.2336 17.6193 30.3213C17.6063 31.2937 18.3963 31.9999 19.3688 31.9999H28.9318C29.9044 31.9999 30.6944 31.2937 30.6814 30.3213C30.6802 30.2336 30.6794 30.1462 30.6794 30.0591C30.6794 27.6339 28.7134 25.668 26.2883 25.668Z" stroke="#978563" stroke-width="1.5" stroke-linecap="round" stroke-linejoin="round"/>
</svg>
