<svg width="16" height="13" viewBox="0 0 16 13" fill="none" xmlns="http://www.w3.org/2000/svg">
<path fill-rule="evenodd" clip-rule="evenodd" d="M2.67348 5.63428C3.875 3.37468 6.11083 0.59375 9.84953 0.59375C13.001 0.59375 15.467 3.2224 15.467 6.35421C15.467 9.48452 13.0006 12.1127 9.84953 12.1127H2.49218C2.03506 12.1127 1.60202 11.9085 1.31108 11.5559C1.02014 11.2034 0.90193 10.7393 0.988905 10.2905L2.49218 10.5814C0.988906 10.2905 0.988701 10.2911 0.988905 10.2905L0.989314 10.2882L0.989925 10.2851L0.991559 10.2766L0.996867 10.2505L1.01524 10.1631C1.03117 10.0897 1.05424 9.98668 1.08527 9.85816C1.14734 9.60142 1.24166 9.24125 1.37315 8.81172C1.63448 7.95825 2.0518 6.80354 2.67348 5.63428ZM4.51813 9.05019H9.84953C11.2119 9.05019 12.4045 7.89214 12.4045 6.35421C12.4045 4.81383 11.2113 3.65625 9.84953 3.65625C7.86728 3.65625 6.42423 5.10355 5.37747 7.07216C5.01466 7.75424 4.73169 8.44392 4.51813 9.05019Z" fill="#FBBF24"/>
</svg>
