<svg width="16" height="13" viewBox="0 0 16 13" fill="none" xmlns="http://www.w3.org/2000/svg">
<path fill-rule="evenodd" clip-rule="evenodd" d="M6.13893 3.65625C4.77709 3.65625 3.58398 4.81383 3.58398 6.35421C3.58398 7.89214 4.77662 9.05019 6.13893 9.05019H11.4693C11.2557 8.44388 10.9728 7.75412 10.6102 7.07198C9.5638 5.10342 8.12118 3.65625 6.13893 3.65625ZM13.4948 10.5814C14.9983 10.2908 14.9981 10.2903 14.9981 10.2897L14.9973 10.2854L14.9955 10.2769L14.9903 10.2508L14.9718 10.1633C14.956 10.09 14.933 9.98693 14.9017 9.8584C14.8399 9.60166 14.7458 9.24147 14.6143 8.81195C14.3529 7.95847 13.936 6.80375 13.3143 5.63446C12.1132 3.37481 9.87781 0.59375 6.13893 0.59375C2.98747 0.59375 0.521484 3.2224 0.521484 6.35421C0.521484 9.48452 2.98794 12.1127 6.13893 12.1127H13.4948C13.952 12.1127 14.385 11.9085 14.6759 11.556C14.9669 11.2035 15.0849 10.7384 14.9981 10.2897L13.4948 10.5814Z" fill="#FBBF24"/>
</svg>
