<svg width="9" height="9" viewBox="0 0 9 9" fill="none" xmlns="http://www.w3.org/2000/svg">
<path fill-rule="evenodd" clip-rule="evenodd" d="M4.37 8.83202C3.69584 8.83202 3.1011 8.39102 2.9049 7.74586C2.70277 7.08068 2.18337 6.56128 1.52126 6.35936C0.876706 6.16295 0.436523 5.56842 0.436523 4.89467C0.436523 4.22092 0.876706 3.62639 1.52126 3.42998C2.18337 3.22806 2.70277 2.70866 2.9049 2.04348C3.1011 1.39832 3.69584 0.95752 4.37 0.95752C5.04416 0.95752 5.6391 1.39832 5.8351 2.04348C6.03743 2.70866 6.55683 3.22806 7.21894 3.42998C7.86329 3.62639 8.30368 4.22092 8.30368 4.89467C8.30368 5.56842 7.86329 6.16295 7.21894 6.35936C6.55683 6.56128 6.03743 7.08068 5.8351 7.74586C5.6391 8.39102 5.04416 8.83202 4.37 8.83202Z" fill="#FBBF24"/>
</svg>
