<svg width="39" height="32" viewBox="0 0 39 32" fill="none" xmlns="http://www.w3.org/2000/svg">
<path fill-rule="evenodd" clip-rule="evenodd" d="M3.19757 2.77972C4.7408 1.02949 6.95107 0.0474854 9.55217 0.0474854H29.4487C32.049 0.0474854 34.2589 1.02965 35.8018 2.77983C37.3267 4.50985 38.0974 6.86988 38.0974 9.47892V21.9698C38.0974 24.5817 37.3224 26.9421 35.7959 28.6716C34.2522 30.4205 32.0431 31.4034 29.4487 31.4034H9.55017C6.94984 31.4034 4.74003 30.4213 3.19712 28.6708C1.67201 26.9405 0.901367 24.5799 0.901367 21.9698V9.47892C0.901367 6.86988 1.67212 4.50977 3.19757 2.77972ZM5.49465 4.80514C4.55785 5.86756 3.96387 7.45767 3.96387 9.47892V21.9698C3.96387 23.9925 4.55795 25.583 5.49459 26.6457C6.41342 27.6881 7.76237 28.3409 9.55017 28.3409H29.4487C31.2284 28.3409 32.5784 27.689 33.4998 26.6448C34.4386 25.5813 35.0349 23.9905 35.0349 21.9698V9.47892C35.0349 7.45767 34.441 5.8675 33.5045 4.80502C32.5855 3.76273 31.2366 3.10999 29.4487 3.10999H9.55217C7.76314 3.10999 6.41364 3.76287 5.49465 4.80514Z" fill="#FBBF24"/>
</svg>
