<svg width="15" height="15" viewBox="0 0 15 15" fill="none" xmlns="http://www.w3.org/2000/svg">
<path fill-rule="evenodd" clip-rule="evenodd" d="M7.52695 14.2961C6.88601 14.2961 6.31285 13.8968 6.09068 13.2957L5.88445 12.7375C5.26154 11.0515 3.93464 9.72322 2.25271 9.0999L1.69538 8.89349C1.09486 8.67094 0.696289 8.09805 0.696289 7.45758C0.696289 6.81711 1.09486 6.24442 1.69538 6.02188L2.25261 5.81526C3.93454 5.19194 5.26152 3.86364 5.88443 2.17783L6.09066 1.61964C6.31283 1.01837 6.88599 0.619019 7.52695 0.619019C8.16803 0.619019 8.74113 1.01837 8.96326 1.61964L9.16967 2.17783C9.79259 3.86364 11.1193 5.19194 12.8012 5.81526L13.3586 6.02168C13.9592 6.24422 14.358 6.81711 14.358 7.45758C14.358 8.09805 13.9592 8.67094 13.3586 8.89349L12.8014 9.0999C11.1195 9.72322 9.79259 11.0515 9.16967 12.7375L8.96326 13.2957C8.74113 13.8968 8.16803 14.2961 7.52695 14.2961ZM9.46388 7.45758C8.72541 6.91164 8.07248 6.2581 7.52695 5.51902C6.98158 6.2581 6.32864 6.91164 5.59016 7.45758C6.32864 8.00352 6.98158 8.65706 7.52695 9.39614C8.07248 8.65706 8.72541 8.00352 9.46388 7.45758Z" fill="#FBBF24"/>
</svg>
