<svg width="62" height="62" viewBox="0 0 62 62" fill="none" xmlns="http://www.w3.org/2000/svg">
<path d="M8.125 30.5528V22.1818C8.125 15.9747 11.9903 11.5901 18.2024 11.5901H43.7975C49.9924 11.5901 53.875 15.9747 53.875 22.1818V38.924C53.875 45.131 50.0096 49.5156 43.7975 49.5156H30.0405" stroke="white" stroke-width="3" stroke-linecap="round" stroke-linejoin="round"/>
<path d="M53.875 25.0465H8.125" stroke="white" stroke-width="3" stroke-linecap="round" stroke-linejoin="round"/>
<path d="M14.7223 36.3015L14.4655 36.9964C13.4975 39.6163 11.4349 41.6819 8.8187 42.6513L8.125 42.9085L8.8187 43.1658C11.4349 44.1352 13.4975 46.2008 14.4655 48.8207L14.7223 49.5156L14.979 48.8207C15.9471 46.2008 18.0097 44.1352 20.6259 43.1658L21.3198 42.9085L20.6259 42.6513C18.0097 41.6819 15.9471 39.6163 14.979 36.9964L14.7223 36.3015Z" stroke="white" stroke-width="3" stroke-linecap="round" stroke-linejoin="round"/>
<path d="M29.4986 34.6045C29.0624 36.0397 27.9408 37.1629 26.5078 37.5996C27.9408 38.0365 29.0624 39.1596 29.4986 40.5949C29.9347 39.1596 31.0564 38.0365 32.4894 37.5996C31.0564 37.1629 29.9347 36.0397 29.4986 34.6045Z" stroke="white" stroke-width="3" stroke-linecap="round" stroke-linejoin="round"/>
</svg>
