<svg width="49" height="49" viewBox="0 0 49 49" fill="none" xmlns="http://www.w3.org/2000/svg">
<rect x="0.5" y="0.5" width="48" height="48" rx="24" stroke="#D0B98F"/>
<path fill-rule="evenodd" clip-rule="evenodd" d="M33.8039 17.392C33.6937 17.2194 33.494 17.1227 33.2881 17.157L31.2049 17.4669C30.6173 16.8096 28.8181 15.1331 26.3357 15.884C24.186 16.5434 23.1626 18.8293 23.1013 20.5744C20.4357 20.0856 17.948 18.7731 16.0428 16.8387C15.9065 16.7004 15.7037 16.6495 15.5165 16.7077C15.3293 16.7659 15.192 16.924 15.1598 17.1164C14.2082 22.7771 15.4375 26.5554 19.0255 28.9266C17.6932 29.6609 16.1655 30.0384 14.6616 29.9843C14.4557 29.9833 14.2675 30.0925 14.178 30.2766C14.0876 30.4596 14.1146 30.679 14.2456 30.8371C15.7869 32.6904 18.6906 33.3258 21.0046 33.3258C21.2719 33.3258 21.5308 33.3175 21.7794 33.3019C25.149 33.0918 27.9269 31.7003 29.8124 29.2761C31.5981 26.9808 32.4623 23.8265 32.2449 20.3685L32.2387 20.3175L33.7987 17.9578C33.9121 17.7872 33.9141 17.5647 33.8039 17.392Z" fill="#D0B98F"/>
</svg>
